<svg xmlns="http://www.w3.org/2000/svg" viewBox="0 0 179.65 53.73"><defs><style>.a{fill:#fff;}.b,.c{fill:#002f6c;}.c{fill-rule:evenodd;}.d{fill:#ba0c2f;}.e{fill:none;}</style></defs><path class="a" d="M.22,26.86A26.65,26.65,0,1,1,26.86,53.51,26.64,26.64,0,0,1,.22,26.86"/><path class="a" d="M26.86,48.11A21.25,21.25,0,1,0,5.62,26.86,21.24,21.24,0,0,0,26.86,48.11"/><path class="a" d="M85.41,9.49V24.07c0,8.52-5.81,11.45-12.85,11.45-7.46,0-12.84-3.46-12.84-11.41V9.49h6.4V24.26c0,3.69,2.67,5.91,6.37,5.91,3.38,0,6.51-1.77,6.51-6.36V9.49Z"/><path class="a" d="M107.82,16.16c-3.73-1.66-5.95-2.3-8.14-2.3s-3.77.83-3.77,2.11c0,3.88,13.08,2.79,13.08,11.76,0,4.93-4.15,7.79-9.87,7.79A17.4,17.4,0,0,1,89.85,33V27.5c3.69,2.45,6,3.32,8.78,3.32,2.44,0,3.76-.87,3.76-2.38,0-4.22-13.07-2.67-13.07-11.9,0-4.45,3.85-7.38,9.8-7.38a21.07,21.07,0,0,1,8.7,2Z"/><polygon class="a" points="63 41.52 60.6 41.52 60.6 43.22 63 43.22 63 44.01 60.6 44.01 60.6 46.87 59.72 46.87 59.72 40.73 63 40.73 63 41.52"/><path class="a" d="M65.5,40.73c1.24,0,2,.65,2,1.72a1.53,1.53,0,0,1-1,1.5,5.07,5.07,0,0,1,1.37,1.7c.26.42.41.63.83,1.22h-1l-.81-1.27c-.81-1.25-1.18-1.4-1.63-1.4h-.37v2.67H64V40.73Zm-.67,2.68h.57c.95,0,1.21-.49,1.21-1s-.36-.93-1.21-.93h-.57Z"/><path class="a" d="M71.76,40.65a3.15,3.15,0,1,1-3.29,3.15,3.13,3.13,0,0,1,3.29-3.15m0,5.49a2.34,2.34,0,1,0-2.38-2.34,2.31,2.31,0,0,0,2.38,2.34"/><polygon class="a" points="81.67 46.87 80.79 46.87 80.79 42.09 80.77 42.09 78.88 44.46 78.73 44.46 76.84 42.09 76.83 42.09 76.83 46.87 75.94 46.87 75.94 40.73 76.77 40.73 78.81 43.25 80.85 40.73 81.67 40.73 81.67 46.87"/><polygon class="a" points="89.83 41.52 87.7 41.52 87.7 46.87 86.82 46.87 86.82 41.52 84.7 41.52 84.7 40.73 89.83 40.73 89.83 41.52"/><polygon class="a" points="95.77 46.87 94.89 46.87 94.89 44.19 91.45 44.19 91.45 46.87 90.56 46.87 90.56 40.73 91.45 40.73 91.45 43.4 94.89 43.4 94.89 40.73 95.77 40.73 95.77 46.87"/><polygon class="a" points="100.59 41.52 97.99 41.52 97.99 43.37 100.5 43.37 100.5 44.16 97.99 44.16 97.99 46.07 100.67 46.07 100.67 46.87 97.11 46.87 97.11 40.73 100.59 40.73 100.59 41.52"/><path class="a" d="M109.3,46.87h-.9l-.82-1.81H105l-.78,1.81h-.9l2.64-6.18h.62Zm-4-2.61h1.91l-1-2.22Z"/><polygon class="a" points="115.59 46.87 114.71 46.87 114.71 42.09 114.69 42.09 112.8 44.46 112.65 44.46 110.76 42.09 110.75 42.09 110.75 46.87 109.86 46.87 109.86 40.73 110.69 40.73 112.73 43.25 114.77 40.73 115.59 40.73 115.59 46.87"/><polygon class="a" points="120.37 41.52 117.77 41.52 117.77 43.37 120.28 43.37 120.28 44.16 117.77 44.16 117.77 46.07 120.45 46.07 120.45 46.87 116.89 46.87 116.89 40.73 120.37 40.73 120.37 41.52"/><path class="a" d="M123,40.73c1.25,0,2,.65,2,1.72a1.54,1.54,0,0,1-1,1.5,5.06,5.06,0,0,1,1.36,1.7c.26.42.42.63.84,1.22H125.1l-.81-1.27c-.81-1.25-1.18-1.4-1.63-1.4h-.37v2.67h-.88V40.73Zm-.66,2.68h.57c.94,0,1.21-.49,1.2-1s-.35-.93-1.2-.93h-.57Z"/><rect class="a" x="126.56" y="40.73" width="0.88" height="6.14"/><path class="a" d="M133.85,42.09a4,4,0,0,0-2.11-.63,2.33,2.33,0,0,0-2.45,2.35,2.3,2.3,0,0,0,2.48,2.33,4.05,4.05,0,0,0,2.15-.7v1a4.61,4.61,0,0,1-2.23.54,3.14,3.14,0,0,1-3.31-3.06,3.19,3.19,0,0,1,3.37-3.24,5.29,5.29,0,0,1,2.1.5Z"/><path class="a" d="M140.21,46.87h-.9l-.82-1.81h-2.61l-.77,1.81h-.9l2.64-6.18h.62Zm-4-2.61h1.9l-1-2.22Z"/><polygon class="a" points="146.47 46.87 145.72 46.87 141.61 42.14 141.61 46.87 140.79 46.87 140.79 40.73 141.49 40.73 145.65 45.48 145.65 40.73 146.47 40.73 146.47 46.87"/><path class="a" d="M152.42,40.73a1.72,1.72,0,0,1,2,1.76c0,1-.64,1.72-2.07,1.72h-.91v2.66h-.89V40.73Zm-1,2.69h1a1,1,0,0,0,1.08-1c0-.45-.24-.93-1-.93h-1Z"/><polygon class="a" points="158.62 41.52 156.02 41.52 156.02 43.37 158.53 43.37 158.53 44.16 156.02 44.16 156.02 46.07 158.7 46.07 158.7 46.87 155.14 46.87 155.14 40.73 158.62 40.73 158.62 41.52"/><path class="a" d="M162.66,40.65a3.15,3.15,0,1,1-3.3,3.15,3.13,3.13,0,0,1,3.3-3.15m0,5.49a2.34,2.34,0,1,0-2.39-2.34,2.3,2.3,0,0,0,2.39,2.34"/><path class="a" d="M168.73,40.73a1.72,1.72,0,0,1,2,1.76c0,1-.65,1.72-2.07,1.72h-.92v2.66h-.89V40.73Zm-1,2.69h1a1,1,0,0,0,1.08-1c0-.45-.25-.93-1.05-.93h-1Z"/><polygon class="a" points="172.32 46.07 175.09 46.07 175.09 46.87 171.44 46.87 171.44 40.73 172.32 40.73 172.32 46.07"/><polygon class="a" points="179.25 41.52 176.65 41.52 176.65 43.37 179.16 43.37 179.16 44.16 176.65 44.16 176.65 46.07 179.33 46.07 179.33 46.87 175.77 46.87 175.77 40.73 179.25 40.73 179.25 41.52"/><path class="b" d="M0,26.86A26.87,26.87,0,1,0,26.86,0,26.89,26.89,0,0,0,0,26.86m.44,0A26.42,26.42,0,1,1,26.86,53.28,26.46,26.46,0,0,1,.44,26.86"/><path class="b" d="M5.4,26.86A21.47,21.47,0,1,0,26.86,5.4,21.49,21.49,0,0,0,5.4,26.86m.44,0a21,21,0,1,1,21,21,21,21,0,0,1-21-21"/><rect class="b" x="14.64" y="34.45" width="24.55" height="3.85"/><rect class="b" x="14.64" y="12.11" width="24.55" height="7.12"/><rect class="b" x="14.64" y="12.11" width="24.55" height="7.12"/><polygon class="b" points="50.82 22.54 50.81 23.55 50.21 22.73 49.24 23.05 49.84 22.23 49.24 21.42 50.21 21.75 50.82 20.93 50.82 21.93 51.76 22.24 50.82 22.54"/><polygon class="b" points="2.73 21.93 2.73 20.92 3.34 21.74 4.32 21.43 3.71 22.24 4.31 23.05 3.34 22.73 2.73 23.55 2.73 22.54 1.79 22.23 2.73 21.93"/><path class="b" d="M4.66,14.31,6.15,15a1.26,1.26,0,0,1,.53,1.89,1.26,1.26,0,0,1-1.82.74l-1.49-.74.32-.65L5.2,17a.66.66,0,0,0,.93-.35.69.69,0,0,0-.33-1L4.34,15Z"/><polygon class="b" points="9.25 12.73 8.9 13.23 6.44 13.48 7.97 14.56 7.55 15.15 5.16 13.47 5.54 12.93 7.9 12.67 6.44 11.65 6.86 11.05 9.25 12.73"/><rect class="b" x="8.45" y="9.59" width="0.73" height="2.93" transform="translate(-5.31 10.4) rotate(-48.77)"/><polygon class="b" points="10.83 7.73 10.06 8.46 11.7 10.2 11.16 10.7 9.53 8.96 8.75 9.69 8.39 9.29 10.46 7.34 10.83 7.73"/><polygon class="b" points="14.5 7.99 12.76 9.26 11.03 6.9 12.75 5.64 13.07 6.08 11.94 6.9 12.3 7.4 13.38 6.61 13.69 7.04 12.62 7.83 13.03 8.4 14.19 7.56 14.5 7.99"/><path class="b" d="M14.61,4.54a1.46,1.46,0,0,1,2.13.52,1.44,1.44,0,0,1-.8,2.09l-1.06.58-1.4-2.57Zm.65,2.37.42-.23a.86.86,0,0,0,.39-1.27.85.85,0,0,0-1.28-.35l-.41.22Z"/><path class="b" d="M20.11,3.08a2.17,2.17,0,0,0-1,0c-.25.08-.38.22-.34.36.14.42,1.52-.16,1.84.81.17.54-.18,1-.79,1.2a2.13,2.13,0,0,1-1.1.06L18.57,5a1.69,1.69,0,0,0,1.06,0c.27-.08.38-.22.33-.39-.15-.45-1.51.18-1.84-.82-.16-.48.15-.94.8-1.15a2.34,2.34,0,0,1,1-.09Z"/><polygon class="b" points="23.43 2.14 22.39 2.34 22.85 4.69 22.14 4.83 21.68 2.48 20.64 2.69 20.53 2.16 23.33 1.61 23.43 2.14"/><path class="b" d="M26.74,4.27,26,4.33l-.29-.55-1.3.1-.17.59-.77.06.95-3,.84-.06ZM24.86,2.19l-.34,1.16.9-.07Z"/><polygon class="b" points="29.24 2.02 28.18 1.98 28.09 4.36 27.36 4.34 27.45 1.95 26.39 1.91 26.41 1.37 29.26 1.48 29.24 2.02"/><polygon class="b" points="31.64 4.81 29.51 4.46 29.98 1.57 32.08 1.92 31.99 2.45 30.61 2.22 30.51 2.83 31.83 3.04 31.74 3.57 30.43 3.36 30.31 4.05 31.72 4.28 31.64 4.81"/><path class="b" d="M34.58,3.37a2.41,2.41,0,0,0-.82-.5c-.25-.07-.44,0-.48.11-.12.43,1.35.72,1.07,1.7-.16.54-.7.72-1.33.55a2,2,0,0,1-.94-.56l.18-.61a1.66,1.66,0,0,0,.86.63c.26.08.44,0,.48-.14.13-.46-1.35-.7-1.06-1.71.14-.49.65-.69,1.3-.5a2.26,2.26,0,0,1,.89.49Z"/><path class="b" d="M37.92,7.16l-.71-.34,0-.62-1.19-.56-.44.43-.7-.32L37.22,3.6,38,4Zm-.6-2.75-.88.85.82.38Z"/><path class="b" d="M41.45,7a2.65,2.65,0,0,0-.77-.82.93.93,0,0,0-1.4.19.89.89,0,0,0,.37,1.27,1,1,0,0,0,.47.18l.18-.29L40,7.28l.29-.45,1,.63-.66,1a1.92,1.92,0,0,1-1.24-.35,1.56,1.56,0,0,1-.65-2.2,1.57,1.57,0,0,1,2.3-.3,2.77,2.77,0,0,1,.84.83Z"/><polygon class="b" points="42.41 10.52 40.78 9.11 42.69 6.89 44.3 8.28 43.95 8.69 42.89 7.78 42.49 8.24 43.5 9.11 43.15 9.52 42.14 8.65 41.68 9.18 42.76 10.12 42.41 10.52"/><polygon class="b" points="44.72 13.05 44.31 12.59 44.65 10.13 43.24 11.38 42.76 10.83 44.95 8.89 45.4 9.39 45.09 11.75 46.43 10.56 46.91 11.11 44.72 13.05"/><path class="b" d="M46.74,15.64a2.27,2.27,0,0,1-.87-.81,1.53,1.53,0,0,1,.32-2.24,1.59,1.59,0,0,1,2.23.65,2.07,2.07,0,0,1,.36,1l-.54.35a2.16,2.16,0,0,0-.3-1,.91.91,0,1,0-1.51,1,2.35,2.35,0,0,0,.85.71Z"/><polygon class="b" points="48.34 16.36 49.26 14.66 49.64 15.46 49.08 16.42 50.18 16.61 50.55 17.41 48.65 17.02 47.41 17.61 47.1 16.95 48.34 16.36"/><rect class="b" x="1.48" y="27.45" width="2.93" height="0.73" transform="translate(-1.06 0.13) rotate(-2.19)"/><polygon class="b" points="1.95 32.06 1.86 31.45 3.48 29.58 1.62 29.85 1.51 29.13 4.41 28.71 4.51 29.37 2.97 31.17 4.74 30.91 4.84 31.63 1.95 32.06"/><polygon class="b" points="5.21 34.82 4.91 33.8 2.62 34.49 2.41 33.79 4.7 33.1 4.4 32.09 4.91 31.94 5.73 34.67 5.21 34.82"/><polygon class="b" points="4.06 38.12 3.19 36.15 5.87 34.97 6.72 36.91 6.23 37.13 5.67 35.85 5.11 36.1 5.64 37.32 5.15 37.54 4.62 36.31 3.97 36.6 4.55 37.91 4.06 38.12"/><path class="b" d="M7.61,38.46a.89.89,0,0,1-.24,1.26.76.76,0,0,1-.87-.07c0,.33-.24.59-.77,1.39l-.41-.69c.38-.59.8-1,.6-1.32l-.11-.18-1,.61-.37-.63,2.52-1.49Zm-1.33.12.19.33c.11.17.28.3.49.17s.22-.29.08-.52l-.19-.32Z"/><polygon class="b" points="7.92 43.86 7.54 43.38 8 40.95 6.53 42.12 6.08 41.55 8.36 39.72 8.78 40.24 8.36 42.58 9.76 41.47 10.21 42.03 7.92 43.86"/><path class="b" d="M10.78,46.6l-.57-.53.21-.59-.95-.89-.56.27-.56-.52L11.2,43l.62.57ZM11,43.8,10,44.34l.66.62Z"/><polygon class="b" points="14.38 46.26 13.53 45.63 12.11 47.55 11.53 47.12 12.94 45.2 12.09 44.57 12.41 44.14 14.7 45.83 14.38 46.26"/><rect class="b" x="13.14" y="47.07" width="2.93" height="0.73" transform="translate(-33.61 35.68) rotate(-59.18)"/><path class="b" d="M16.33,50a1.51,1.51,0,1,1,1.25-2.73A1.51,1.51,0,1,1,16.33,50m1-2.18a.9.9,0,1,0,.47,1.2.86.86,0,0,0-.47-1.2"/><polygon class="b" points="21.52 51.75 20.93 51.59 19.87 49.35 19.37 51.16 18.67 50.97 19.45 48.14 20.09 48.32 21.12 50.46 21.6 48.74 22.3 48.93 21.52 51.75"/><path class="b" d="M25.45,52.29l-.78-.1-.17-.6-1.3-.16-.28.55-.77-.09,1.52-2.77.84.1ZM24,49.87,23.46,51l.89.11Z"/><polygon class="b" points="28.28 52.26 26.05 52.28 26.03 49.35 26.76 49.34 26.77 51.73 28.28 51.72 28.28 52.26"/><path class="b" d="M31,49a1.45,1.45,0,0,1,1.85,1.15c.16.83-.26,1.54-1.4,1.75l-1.19.22-.53-2.88Zm-.12,2.46.47-.09A.93.93,0,1,0,31,49.53l-.46.08Z"/><polygon class="b" points="35.9 50.68 33.84 51.34 32.95 48.56 34.97 47.91 35.14 48.41 33.8 48.84 33.99 49.43 35.26 49.02 35.43 49.53 34.16 49.94 34.37 50.61 35.73 50.17 35.9 50.68"/><polygon class="b" points="37.94 49.83 37.65 49.97 35.11 47.88 35.83 47.54 37.24 48.73 37.2 46.91 37.91 46.57 37.94 49.83"/><polygon class="b" points="41.47 47.77 39.64 48.92 38.08 46.44 39.88 45.31 40.17 45.76 38.98 46.51 39.31 47.03 40.44 46.31 40.73 46.77 39.6 47.48 39.97 48.08 41.18 47.31 41.47 47.77"/><polygon class="b" points="43.84 45.9 42.1 47.3 40.27 45.02 40.84 44.57 42.34 46.43 43.5 45.49 43.84 45.9"/><path class="b" d="M45.45,44.35a1.51,1.51,0,1,1,0-2.25,1.56,1.56,0,0,1,0,2.25M43.7,42.71A.89.89,0,1,0,45,43.93a.85.85,0,0,0,0-1.28.87.87,0,0,0-1.29.06"/><path class="b" d="M45.42,39.68a.88.88,0,1,1,1.43,1l-.33.48,1,.67-.42.6-2.39-1.69Zm.66,1.17.19-.28c.2-.27.17-.44,0-.57s-.36-.08-.59.25l-.15.21Z"/><polygon class="b" points="47.33 36.33 47.62 35.77 50.23 37.09 49.9 37.74 48.27 36.91 48.73 38.03 48.68 38.13 47.5 38.42 49.13 39.25 48.8 39.9 46.19 38.57 46.48 38.01 47.87 37.66 47.33 36.33"/><polygon class="b" points="51.25 34.17 50.55 36.22 47.78 35.27 48.48 33.26 48.98 33.43 48.53 34.75 49.11 34.95 49.54 33.69 50.05 33.86 49.62 35.13 50.28 35.35 50.75 34 51.25 34.17"/><polygon class="b" points="52.06 30.47 51.95 31.07 49.79 32.3 51.63 32.66 51.49 33.38 48.62 32.81 48.75 32.15 50.81 30.97 49.05 30.62 49.19 29.91 52.06 30.47"/><polygon class="b" points="49.92 26.77 49.86 27.83 52.25 27.96 52.21 28.69 49.82 28.56 49.76 29.62 49.23 29.59 49.38 26.74 49.92 26.77"/><path class="c" d="M23,29.33a.19.19,0,0,0-.07-.08h0l0,0,0,0s-.06,0-.06,0,0,0,0,0,0,.08,0,.13l0,.05a1.07,1.07,0,0,0-.16.14,1.17,1.17,0,0,0,.2-.06l0,0,.05,0h0l.05,0h0l0,0s0,0,0,0"/><path class="c" d="M24.3,22.46a.1.1,0,0,0,.05,0s0,0,0,0l0,0,0,0,0,0,.06.14a.06.06,0,0,0,0,0h0l0,0s0,0,0,0,0,0,0,0a.56.56,0,0,1,0-.07.06.06,0,0,1,0,0s0,0,0,0a.33.33,0,0,0-.06-.12s-.05,0-.07,0,0,0,0,0h-.1s0,0,0,0"/><path class="c" d="M24.57,23.26l0,0s0,0,0,0v0h0s0,0,0,0,0,0,0,0,0,0,0,0v0l-.09.09,0,0s-.08.08-.13.08a.15.15,0,0,1-.06,0c0-.05,0-.08,0-.12s0,0,0,0a.08.08,0,0,1,0-.05s-.05.05-.07.07L24,23.5l0,0-.07.07-.07.06-.06.06-.07.06,0,0-.05,0s0,0,0,0h.27l.09,0,.12,0,.1,0s0,0,0,0l.05,0s0,0,0,0h0s0,0,0,0,0,0,0,0l0-.05,0,0,0,0s0,0,0-.06,0,0,0-.05l.06-.14a.25.25,0,0,0,0-.12l-.1.15"/><path class="c" d="M23.72,23.42h0a.6.6,0,0,0-.08.08s-.06.06-.1.09l0,0-.1.09a.1.1,0,0,1-.05,0h0l0,0v0h0a0,0,0,0,0,0,.05h.1l.2-.22a.82.82,0,0,0,.16-.25h0"/><path class="c" d="M23.19,23.56h0s0,0,0,0l0,0,0,0a.35.35,0,0,0-.09.07l0,0a.18.18,0,0,0,0,.1H23l0,0,0,0,0,0,0,0s0,0,0,0h0l0-.05,0,0v0s0,0,0,0h0"/><path class="c" d="M22.79,23.63h0l-.09,0-.05,0a.05.05,0,0,0-.05,0s0,0,0,0h0l0,0a.06.06,0,0,0,.06,0l.05,0,0,0s0,0,0,0h0s0,0,0,0h0s0,0,0,0,0,0,0,0h0"/><path class="c" d="M36.93,24h-.19l-.06,0,0,.05,0,0s0,0,0,0,0,0,.05,0l0,0,0,0,0,0L37,24h0"/><path class="c" d="M37.38,24l0,0s0,0,0,.05l.1,0,0,0h0l0,0h0v0h0v0c-.07,0-.11,0-.19,0"/><path class="c" d="M26.83,24.76a.31.31,0,0,0-.11-.09l-.06-.06h0l-.08-.07-.06,0h0l-.05,0a.6.6,0,0,0-.11-.06l-.05,0,0,0-.14,0-.14,0-.1,0-.05,0h-.36l.24.06a1,1,0,0,1,.21.1s0,.05,0,.1,0,0,0,0l0,0,0,0s0,0,0,0l0,.06h0s0,0,0,0,0,0,0,0l0,0s0,0,0,0l.09,0a.31.31,0,0,1,.1-.05l.05,0,.05,0,.05,0h0a.15.15,0,0,1,0,.09h0a.16.16,0,0,1,0,.06.32.32,0,0,0-.1.13s0,0,.09,0l.07,0,.08,0s.12-.09.18-.08a.24.24,0,0,1,0,.08h0l-.05.07v.06l0,0,0,.05,0,0s0,0,0,.05,0,0,0,0,0,0,0,0l.15-.08,0,0a0,0,0,0,0,0,0s.06,0,.07-.05,0,0,.05,0h.08s.06,0,.07,0,0,0,0,.07a.16.16,0,0,0,0,.07c.08,0,.12-.06.19-.08s.06,0,.08-.08-.08-.07-.13-.1"/><path class="c" d="M33.51,24.49l0,0s0,0,0,0l0,0,0,0,0,0h0l0,0,0,0,0,0h0l0,0h.11l0,0,0,0h.06v0h0l0,0h0l0,0s0-.06,0-.1Z"/><path class="c" d="M26.79,25.26l-.08,0h-.09s0,0,0,0l-.1.06s0,0,0,0,0,0,0,0l0,0h.09s0,0,0,0h0l.08,0h0l.07-.05a1.21,1.21,0,0,1,.16-.16s0,0,0,0l-.25.11"/><path class="c" d="M20.85,25.86h0s0,0,0,0h0s0,0-.06,0l0,0h0s0,0,0,0h0l0,0,0,0s0,0,0,0l-.16.1,0,0,0,0-.06,0,0,0h0l0,0a.57.57,0,0,0-.11.11.16.16,0,0,0,0,.07s0,0,0,0,0,0,0,0,0,0,0,0l0,0h0l0,0,.05,0h0a.05.05,0,0,0,0,0h0l.06,0h0l.05,0h.05l.1-.06.08-.06s0,0,.05,0h0l0,0h0s0,0,0-.05a.06.06,0,0,1,0-.06s0,0,0,0"/><path class="c" d="M21.3,25.92l-.07,0s-.06,0-.09.07h0l0,0a.09.09,0,0,0,0,0h0l-.08.06-.07.05a1.28,1.28,0,0,0-.22.17s0,0,0,0,0,0,0,.05.05,0,.08,0,0,0,0,0,0,0,0,0h0l.06,0,0,0,.05,0,0,0,.17-.1a.77.77,0,0,1,.16-.07s0,0,0,0a.12.12,0,0,0,.06-.08s0,0-.07,0"/><path class="c" d="M21.39,26.27h0s0,0-.05,0h-.08l0,0h0l-.17.13-.07.06s0,0,0,0,0,0,0,0l.42-.23s0,0,0-.05,0,0,0,0"/><path class="c" d="M33.17,26.37h-.09l-.19,0c-.12,0-.25,0-.37,0h-.18a1.24,1.24,0,0,0-.18,0l0,0s-.07,0-.09,0a.08.08,0,0,0,0,.07l0,0v0h0s0,0,0,0,0,0,0,0h.09l0,0h.11a1,1,0,0,0,.25,0h.09a.53.53,0,0,1,.12,0H33l.07,0h.07s.08,0,.1-.06a.07.07,0,0,0,.06-.1l-.09,0"/><path class="c" d="M23,26.39l-.06.05-.17.12-.07,0,0,0h0a.47.47,0,0,1-.09.06h0s0,0,0,0h0s0,0,0,0a0,0,0,0,0,0,0h0l0,0s-.06,0-.08.06h0l-.09.09,0,0s0,0,0,0h0l.05,0h.05l0,0h0s0,0,0,0h0l.08-.05.06,0,.05,0s0,0,0,0,0,0,0,0h0v0h0l0,0,0,0,.07-.06,0,0,0,0h0l0,0h0l0,0,0,0a.05.05,0,0,0,0,0s0,0,0,0"/><path class="c" d="M29.3,26.56l0,0h0a.31.31,0,0,1-.1,0l-.09.06-.06,0h0s0,0,0,0h0l0,0a.05.05,0,0,0,0,0s0,0,0,0a.05.05,0,0,0,0,0,0,0,0,0,1,0,0H29l0,0,0,0,0,0s0,0,0,0l.06-.06.06-.05,0,0h0l0,0,0,0s0,0,0,0a0,0,0,0,0,0,0s0,0-.05,0"/><path class="c" d="M21.68,26.61s0,0,0,0l-.08,0s0,0,0,0l-.05,0,0,.05a3.07,3.07,0,0,0-.26.25s0,0,0,0h0l-.05.05s0,0,0,0,0,0,0,0h0a0,0,0,0,1,0,0,0,0,0,0,1,0,0l.07,0h0s0,0,0,0l.06,0s0,0,0,0h0l.11-.06h0l0,0h.06l.05-.07h0l0,0s0,0,0,0h0l0,0s0,0,0-.06,0,0,0,0"/><path class="c" d="M23.8,26.72l-.14.06-.07,0h0l0,0h0s0,0,0,0h0s0,0,0,0,0,.07,0,.07a.87.87,0,0,0,.1-.08l0,0h0a0,0,0,0,0,0,0h0l0,0,0,0s.09,0,.07-.08h0"/><path class="c" d="M29.43,26.8s0,0,0,0h-.06s0,0,0,0l0,0h0a0,0,0,0,0,0,0l-.17.05h0l0,0a0,0,0,0,0,0,0s0,0,0,0,0,0,0,.06a.25.25,0,0,0,0,.07l.06,0h.1s.05,0,.07-.05l.05,0,0,0s0,0,0,0h0v0l.07-.05a1.29,1.29,0,0,1,.18-.16s0,0,0,0a.6.6,0,0,0-.11.06"/><path class="c" d="M29.78,26.86h0l-.09.06h0s0,0,0,0h0l0,0,0,0-.06,0-.05,0h-.06a0,0,0,0,0,0,0h0s0,0,0,0l0,0h0s0,0,0,0h0l0,0h0s0,0,0,0,0,0,0,0v0s0,0,0,0h.1l.11,0,0,0h0l0,0s0,0,0,0h0l0,0h0l.09-.08.13-.13s0,0,0,0l0-.05h0v0l0-.06s0,0,0,0-.05,0-.06.05"/><path class="c" d="M16.19,28.47h.1l.09-.06h0l0,0h0l.05,0h0l.07-.05.08-.07.14-.1,0,0a0,0,0,0,0,0,0h0l.05-.05h0s0-.06.06-.07l0,0h0l.11-.1.11-.09h0v0h0a0,0,0,0,0,0,0l.05-.06a.18.18,0,0,0,.07-.05l0,0,0,0a0,0,0,0,1,0,0l0,0,0,0,0,0,0,0,.21-.19s0,0,0,0h0l0,0h0v0h0l-.05,0h0l0,0h0l0,0h0l-.13.11,0,0,0,0s-.05,0-.06,0,0,0,0,0a.1.1,0,0,1-.05,0h0s0,0,0,0h0l-.06,0a0,0,0,0,0,0,0s0,0,0,0h0s0,0,0,0h0l0,0h0l0,0,0,0h-.06l0,0-.12.09h0a.19.19,0,0,1-.09,0l-.1.08-.09.06h0s0,0,0,0h0l0,0h0l-.07.08h0s0,0,0,0,0,0,0,0a0,0,0,0,1,0,0h0l-.16.18s0,0,0,0a.49.49,0,0,0,.14,0"/><path class="c" d="M36.12,27.3l-.11.09,0,0a.6.6,0,0,0-.08.08h0l0,0a.69.69,0,0,0-.13.11h0a.08.08,0,0,0,0,0h0l0,0,0,0h0l-.12.1s0,0,0,0a.1.1,0,0,1,0,0l-.15.14s-.05,0-.06.05a0,0,0,0,0,0,0l0,0a0,0,0,0,0,0,0l0,0-.06,0,0,0h0l0,0,0,0h0l0,0-.06,0h0l-.17.12s0,0,0,0c.24,0,.5,0,.72.06a.24.24,0,0,0,.12,0l.1-.09.05,0a1.62,1.62,0,0,1,.19-.18l.06,0,0,0s.06,0,.08-.07a.1.1,0,0,0,.05,0,2.84,2.84,0,0,0,.25-.23h0a.2.2,0,0,0,.06-.07s0,0,0,0l0,0,.06-.08.1-.11h0a.71.71,0,0,1,.07-.09l0-.07a.09.09,0,0,0,0-.05l-.08.06-.08.06,0,.05-.09.06s0,0,0,0,0,0,0,0l-.07.05h0l0,0h0l-.14.11s0,0,0,0h0l0,0-.06,0h0l0,0,0,0a0,0,0,0,0,0,0s0,0,0,0l-.05,0-.08.07h0l0,0-.09.06h0a0,0,0,0,0,0,0h0l0,0,0,0h0l0,0,0,0h0l0,0h-.15s0-.05,0-.07h0l.18-.14h0l0,0,.08-.06h0l.08-.07a.08.08,0,0,0,0,0s0,0,0,0l0,0s0,0,0,0l.06-.06s0,0,0,0l0,0,0,0,0,0a1.85,1.85,0,0,1,.14-.14,0,0,0,0,1,0,0s0,0,0,0l0,0a0,0,0,0,1,0,0s0,0,0,0a.1.1,0,0,0,0-.05,0,0,0,0,1,0,0v0h0v0h0l0,0h0l0,0s0,0,0,0h0s0,0,0,0l-.1.08"/><path class="c" d="M35,27.3l-.11.08h0l0,0-.11.1,0,0-.05,0h0l-.07.06-.07.05h0a0,0,0,0,0,0,0l0,0-.12.1-.23.2h0a1.15,1.15,0,0,1-.17.14l0,0-.08.07s0,0,0,0-.06,0-.08.07h0l0,.06s0,0,0,0a.35.35,0,0,0,.11,0l.11,0h.15l.19,0h.2a.24.24,0,0,0,.08-.06c.05-.06.1-.09.14-.14l.15-.13.08-.07a.76.76,0,0,1,.09-.09h0l0,0a0,0,0,0,1,0,0s0,0,0,0A.5.5,0,0,0,35,28h0l0,0,.09-.1.07-.08h0v0l.06-.05s0,0,0,0l0,0v0h0a0,0,0,0,1,0,0,.22.22,0,0,0,.05-.08s-.05,0-.07.06l0,0v0h0a0,0,0,0,0,0,0l-.1.08a1.31,1.31,0,0,1-.12.11l-.12.11,0,0,0,0h0s0,0,0,0l0,0,0,0-.06.06s0,0,0,0,0,0-.06,0l0,0-.13.1-.12,0-.1,0-.23,0a0,0,0,0,1-.05,0s0,0,.06-.06l.07-.06s0,0,.08,0l.12-.12.07-.06.18-.18s0,0,0,0l.1-.09a1.36,1.36,0,0,1,.12-.12s0,0,0,0l.08-.08s0,0,0-.05a.23.23,0,0,1,.07-.07s0,0,0,0,0,0,.06-.06l.06-.06h0s0,0-.06,0"/><path class="c" d="M17,27.3s0,0-.07,0h0s0,0,0,0a.1.1,0,0,0-.05,0l-.06,0,0,0s0,0,0,0,0,0,0,0v0h-.06l0,0h0l-.07.05s0,0,0,0h0s0,0,0,0h0l-.14.12-.06,0h0l0,0,0,0s0,0,0,0l-.08.09-.06.06s0,0,0,0l-.05,0h0l-.08.05,0,0,0,0,0,0,0,0,0,0-.07.08s0,0,0,.06a.18.18,0,0,0,.1,0h.13l.06,0,0,0,0,0h0l0,0h0l0,0,0,0,0,0,0,0h0s0,0,0,0a.19.19,0,0,0,.08-.07s0,0,0,0,0,0,0,0l0,0,0,0,.06-.05,0,0a.5.5,0,0,0,.07-.08h0s0,0,0,0h0a0,0,0,0,1,0,0h0l0,0s0,0,0,0,.05,0,.06-.06h0s0,0,0,0l0,0a.36.36,0,0,1,.11-.1.4.4,0,0,1,.13-.13l.06-.07.07-.06h0l-.07,0"/><path class="c" d="M27.35,27.44l-.21.11-.09.05h0l0,0,0,0,0,0v0h-.05l0,0-.05.05h0a.05.05,0,0,0,0,0l.06,0h0l.1,0v0h0v0a.52.52,0,0,0,.11-.1.52.52,0,0,0,.11-.1c.06,0,.12-.12.17-.17l.05,0,0,0s0,0,0,0,0,0,0,0"/><path class="c" d="M37.19,27.44h0v0h0l0,0h0L37,27.6a.38.38,0,0,0-.09.09h0s0,.07,0,.1l0,.05s0,0,0,.06,0,0,0-.06l.07-.06s0,0,0,0,0,0,0-.05,0,0,0,0l0,0a.94.94,0,0,1,.09-.12,0,0,0,0,1,0,0,.18.18,0,0,0,0-.07l.06-.06a0,0,0,0,0,0,0s0,0,0,0"/><path class="c" d="M16.17,27.49a0,0,0,0,1,0,0h0l-.08,0s0,0,0,0L16,27.6l0,0h0l-.06.05,0,0h0l-.16.14h0l0,0h0a.27.27,0,0,1-.08.07l-.06,0,0,0s0,0,0,0h0l0,0h0l0,0h0l-.07.05s0,0,0,0a.83.83,0,0,0-.08.12.46.46,0,0,0-.07.14.17.17,0,0,1,.1,0,.46.46,0,0,0,.14,0l.08-.06,0,0,0-.06a.43.43,0,0,0,.1-.09.47.47,0,0,0,.1-.1l.09-.1.09-.11,0,0,0,0h0l0-.05h0l0,0a1.8,1.8,0,0,1,.2-.19s0,0,0,0Z"/><path class="c" d="M37.6,27.59h0l-.06,0h0v0h0l0,0,0,0a.08.08,0,0,1,0,0,.87.87,0,0,1-.11.09.16.16,0,0,1,0,.08l0,0h0l-.09.08,0,0,0,0H37s0,0,0,0-.1.06-.13.09l-.28.19-.15.11h0l-.06.05s0,0,0,0,0,0,0,0,0,0,.08,0l.08,0,.06,0,.08,0h0s0,0,0,0h0l0,0h0l0,0h0l0,0h0l0,0,.12-.1,0,0h0l0,0,0,0,0,0,0,0,0,0h0s0,0,0,0h0v0h0s0,0,0,0,0,0,0,0,0,0,.06-.05v0l.05,0a.18.18,0,0,1,0-.07l0,0s0,0,0,0h0l0,0v0l0,0s0,0,0,0,0,0,0,0,0,0,0,0a0,0,0,0,0,0,0h0"/><path class="c" d="M37.2,28.59l.16-.1a.1.1,0,0,1,0,0h.05l0,0a0,0,0,0,0,0,0h0s0,0,0,0,0,0,0,0,0,0,0,0,0,0,0,0l0-.05,0,0s0,0,0,0h0s0,0,0,0h0s0,0,0,0a0,0,0,0,1,0,0v0l0,0,.08-.09,0,0s0,0,0,0,.06-.05.07-.08a0,0,0,0,0,0,0s0,0,0-.07a0,0,0,0,0,0,0h0l0-.05h0v0h0l0,0h0l-.08.08,0,0,0,0,0,0s0,0,0,0h0l0,.05-.08,0-.06,0h0l0,0-.11.09,0,0,0,0-.08.06-.08.06-.16.1h0l0,0a.45.45,0,0,0-.13.1l0,0s0,0-.06.06,0,0,0,0a1,1,0,0,0,.39-.12"/><path class="c" d="M27.67,27.63c-.06,0-.13.06-.18.1h0s0,0-.06,0h-.06l0,0h0l-.07,0h0l0,0-.07.06h0l-.06,0s0,.05.05.05h.08l.05,0a.25.25,0,0,1,.09,0s0,0,0,0l0,0,0,0s0,0,.07-.06l0,0,0,0s0,0,0,0a.17.17,0,0,1,.06-.06l0,0a0,0,0,0,1,0,0s0,0,0,0a0,0,0,0,0,0,0l0,0,0,0s0,0,0,0Z"/><path class="c" d="M27.9,27.79l-.1.07h0l0,0-.05,0h-.05l0,0s0,0,0,0h0l-.06,0,0,0a.91.91,0,0,1-.13.1h0s-.06,0-.07.05a1,1,0,0,0,.16.06,0,0,0,0,0,0,0h.08a0,0,0,0,0,0,0l.06,0,0,0,0,0,.13-.09.12-.11s0,0,0,0l0,0a.76.76,0,0,0,.08-.11,0,0,0,0,0,0,0l-.09.05"/><path class="c" d="M36.71,27.84h0l-.08.06-.06,0,0,0-.09.06,0,0h0l-.06.05h0l0,0h0l0,0,0,0h0a.3.3,0,0,1-.08.08h0l-.06.05h0l0,0a.6.6,0,0,0-.08.08s-.05,0-.06.07,0,0,0,0h0l0,0h0a.1.1,0,0,0,.05,0l.08,0h0l0,0,.06,0a.15.15,0,0,1,.07,0s0,0,0,0h0l0,0h0s0,0,0,0l0,0s0,0,0-.05l.08-.08,0,0a0,0,0,0,0,0,0h0v0s0,0,0,0,0-.08,0-.14Z"/><path class="c" d="M37.52,28.75s0,0,0,0a1.27,1.27,0,0,0,.26-.11l0,0,.09-.08h0s0,0,0,0h0l0,0s0,0,0,0l0,0h0l0,0h0s0,0,0,0h0l.06-.06,0,0,0,0,0,0,.08-.11.08-.1s0,0,0-.05,0,0-.08,0-.06.05-.09.08l-.09.09-.05,0a0,0,0,0,0,0,0l0,0,0,0a.1.1,0,0,0-.05,0,.09.09,0,0,0,0,0l0,0h0l0,0h0l0,0-.09.06a0,0,0,0,1,0,0,2,2,0,0,1-.24.16,0,0,0,0,1,0,0h0l-.05,0,0,0a0,0,0,0,0,0,0,.24.24,0,0,0-.06.08h.14"/><path class="c" d="M28.2,28s0,0,0,0l0,0-.07,0-.06,0h0v0h0l-.08.06h0l-.06.05a1.74,1.74,0,0,1-.15.13h0l0,0,0,.05s.05.05.09,0,0,0,.05,0h0v0h0a0,0,0,0,1,0,0l0,0h0l0,0,0,0h0a0,0,0,0,1,0,0s.05-.06.09-.08,0,0,.05-.06l.08-.1h0a0,0,0,0,1,0,0L28.2,28s0,0,0,0,0,0,0,0h0"/><path class="c" d="M28.44,28.22l-.12.06-.12.06s0,0,0,0l-.05,0h0a.5.5,0,0,0-.07.08l0,0-.05,0-.06,0,0,0s0,0,0,0l.08.05h0a0,0,0,0,0,0,0h0a.18.18,0,0,0,.1,0h0l.05,0a.12.12,0,0,0,.07,0l0,0v0h0l.06-.07h0l0,0h0l0,0,0,0h0l.05-.06h0"/><path class="c" d="M29,28.27a.2.2,0,0,0-.09.06l0,0a.05.05,0,0,0,0,0l-.09.05,0,0-.09.05,0,0s-.05,0-.07.05l0,0,0,0s0,0,0,0-.05,0-.07,0l-.07,0h0a0,0,0,0,1,0,0h0a0,0,0,0,1,0,0l0,0s0,0,0,.05a.26.26,0,0,0,.21,0l.07,0h.05v0s.07,0,.09,0l0,0h0v0s0,0,0,0,0,0,0,.06a.18.18,0,0,1-.07.05h0l0,0-.05,0s.06,0,.07,0h0a.58.58,0,0,0,.18,0l.12,0h0s0,0,0,.06a0,0,0,0,0,0,0v0s0,0,0,0l-.15.15,0,0a.1.1,0,0,0-.05,0,.23.23,0,0,0,.14,0,.09.09,0,0,1,.06,0l.07,0h0l.07-.06h0l.13-.1,0,0,0,0a0,0,0,0,0,0,0h0l0,0a.59.59,0,0,0,.08-.08h0l0,0a.43.43,0,0,0,0-.07s0,0-.05,0l0,0-.08,0-.07,0H29s0,0,0,0,0-.05.06-.08,0-.06.08-.07,0,0,0-.06,0-.05,0-.06,0,0,0,0,0,0,0,0a0,0,0,0,0,0,0s0,0,0,0l0-.07a.08.08,0,0,0,0,0s0,0,0,0l0,0-.13.12a.6.6,0,0,1-.08.08h0v0a.18.18,0,0,1-.07,0s-.05,0-.05,0h0a.09.09,0,0,1-.09,0,.07.07,0,0,1,0-.08s0,0,0-.05,0,0,0,0l0,0a.35.35,0,0,0,.05-.08s0,0,0-.05,0,0,0,0h0a.56.56,0,0,0,.05-.08l0-.09Z"/><path class="c" d="M25.85,26h0a.25.25,0,0,1,0,.07.05.05,0,0,1,0,0s0,0,0,0a0,0,0,0,1,0,0s0,0,0,0a.08.08,0,0,1,0,0v0s0,0,0,0a0,0,0,0,0,0,0,.24.24,0,0,0,.08.06.35.35,0,0,0,.16,0l.27-.11a.05.05,0,0,1,0,0l0,0,0,0,0,0,0,0h0s0,.05-.05.06l-.05.05s0,0,0,0,0,0,0,0a.05.05,0,0,0,0,.05.31.31,0,0,0,.12-.05h0l.09,0,.08,0s0,0,0,0a.43.43,0,0,1-.09.1l0,0-.08.08,0,0s0,0,0,.06v0h0v0s0,0,0,0l0,0s0,0,0,.05A.08.08,0,0,1,26,27s0,.05,0,.06-.07,0-.11,0l-.06,0s0,0,0,0h0l-.08.07-.06,0s0,0-.06,0,0,0,0,0,0,0-.05,0,0,0,0,0,0,0-.06,0l-.1.07s0,0,0,0h0l-.07,0h-.05s0,0,0,0,0,0,0,0,.05,0,.06-.06a.48.48,0,0,0,.11-.09l.09-.09h0l0,0h0s0,0,.07-.06l.05-.05,0,0a0,0,0,0,0,0,0h0s0,0,0-.06l.05,0a0,0,0,0,1,0,0l0,0s0-.1,0-.13l-.17.1-.05,0h0a0,0,0,0,0,0,0h0l-.1.07a3.53,3.53,0,0,1-.32.21s0,0,0,0,0-.06,0-.08l0,0s0,0,0,0a1.59,1.59,0,0,1,.13-.13l0,0,.19-.2a.12.12,0,0,0,0-.05l0-.06a.09.09,0,0,0,0-.11,1.53,1.53,0,0,0-.21.14l-.15.11-.05,0s0,0,0,0,0,0,0,0l0,0v0a0,0,0,0,0,0,0l0,0,.05-.07v0h0s0,0,0,0l.05-.08s0,0,0-.05l0,0h0s-.08,0-.12.05h0s0,0,0,0h0a.16.16,0,0,1-.12,0,0,0,0,0,1,0,0h0l0,0s0,0,0,0,0,0,0,0l0,0h-.21a.05.05,0,0,1,0,0h-.07s0,0,0,0l0,0,0,0h0l.06,0,.12,0h0l0,0h0l.05,0,.18-.09a2,2,0,0,1,.25-.14.68.68,0,0,0-.14.23v0h0s0,0,0,0l.05,0,.06,0,0,0,.14-.07.09-.05"/><path class="c" d="M26.6,26.8h0a.35.35,0,0,1-.05.08l-.06.07s0,0,0,0l-.05.06h0a.12.12,0,0,0-.06.06l-.05.05h0s-.05,0-.06.06,0,0-.07,0l-.05.06-.05,0h0l-.06,0,0,0h0l0,0h0l0,0-.07,0,0,0h0l-.09.05c-.05,0-.07,0-.12.06s0,0,0,0l.14-.13,0,0,0,0h0v0h0s0,0,0,0h0l.11-.12h0l0,0h0a.15.15,0,0,0,.05-.06s0,0,0,0,0,0,0,0l0,0h0l.05,0s0,0,0,0h0l0,0h0l0,0h0l.08-.05.17-.1"/><path class="c" d="M19.73,26.86s0,0,0,0,0,0,0,0l-.12.09,0,0h0s0,0,0,0h0l0,0h0l-.05,0h0s0,0,0,0l0,0,0,0,0,0,0,0-.07.07,0,0s0,0,0,0l0,0H19a.11.11,0,0,1-.06,0l.05-.06.06-.05,0,0s.06-.07.1-.09h0l.05,0h0a.18.18,0,0,0,.07-.05h0l0,0,0,0,0,0,.24-.12"/><path class="c" d="M18.51,27s0,0,0,0,0,0,0,0v0l0,0-.12.12-.17.18-.06.06-.06.06s0,0,0,0a.35.35,0,0,0-.11.1l0,0h0l0,.05-.14.1-.08.07,0,0h0s0,0,0,0l-.07.05h0l-.06,0h0l0,0-.06,0-.06.07,0,0h0s-.07,0-.08.07a.08.08,0,0,0,0,.08h0a.1.1,0,0,0,.07,0h.07l0,0h0v0l.12-.09s0,0,0,0,0,0,0,0l.09-.08.06,0,0,0,.09-.08.1-.08.06-.07h0l0,0,.11-.1h0l.09-.08h0s0,0,0,0h0l.08,0,0,0s0,0,0,0,0,0,0,0l.05,0h0a0,0,0,0,0,0,0h0l.05,0,0,0,0,0,0,0h0a.6.6,0,0,1,.13-.09l-.15.16h0s0,0,0,0,0,0,0,0,0,0,0,0h0l0,0a0,0,0,0,1,0,0h0a.24.24,0,0,0-.08.09.33.33,0,0,0-.11.09l-.09.07s0,0,0,0A2.18,2.18,0,0,0,18,28l0,0-.08.06-.06.05a.1.1,0,0,0-.05,0s0,0,0,0l0,0h0a0,0,0,0,1,0,0,.08.08,0,0,0,0,0l-.06,0a.76.76,0,0,1-.09.09.63.63,0,0,0-.11.12l-.05,0-.05,0s0,0,0,0H17.1l-.73,0s0,0,0,0h0a0,0,0,0,1,0,0s0,0,.06,0,0,0,0,0h0l0,0h0l0,0s0,0,0,0h0v0h.07s0,0,0,0l0,0,.08,0,.05-.05h0s0,0,0,0l0,0s.05-.06.09-.07l.28-.25,0,0,.11-.09.06,0h0s0,0,0,0h0s0,0,0,0,.05,0,.07-.06h0v0h0l0,0h0a.18.18,0,0,1,.07-.05l0,0,.08-.07h0s0,0,0-.05h0l0,0,.06-.05,0,0h0l.05,0h0s0,0,0,0h0s0,0,0,0l0,0s0,0,.05,0,0,0,.06,0"/><path class="c" d="M33.92,27.65a.1.1,0,0,1,.06,0l.08-.06a0,0,0,0,0,0,0,.15.15,0,0,0,.07-.05h0l0,0s0,0,0,0a0,0,0,0,0,0,0l0,0,0,0,0,0,.14-.1s0-.05.08-.05a1.25,1.25,0,0,0-.09.12l-.08.09s0,0,0,0a0,0,0,0,0,0,0s0,.05-.06.08a.09.09,0,0,0-.06,0l-.09.07a.15.15,0,0,0-.07,0s0,0-.07,0a0,0,0,0,0,0,0h-.12"/><path class="c" d="M15.25,27.76l-.06,0h0s0,0-.05.05l0,0h0l0,0-.07.06-.15.13s0,0,0,0l-.06,0-.06,0s0,0,0,0v.2h0l.06,0h0s0,0,0,0h0l0,0h0s0,0,0,0h0v0h0v0s0,0,0,0h0l.06-.06v0l0-.06L15,28l0,0,0-.05s0,0,0,0h0a0,0,0,0,1,0,0h0v0h0a0,0,0,0,0,0,0h0s0,0,0,0l0,0s0,0,0,0h0l0,0h0"/><path class="c" d="M39.14,29.08l-.27,0-.2,0h-.42l-.15,0a1,1,0,0,1-.17,0H37.8l-.28,0-.35,0h-.36l-.3,0h-.17l-.24,0-.24,0h-.52a7.27,7.27,0,0,1-.81,0h-.35l-.21,0h-.12s0,0-.05,0h-.14s-.12,0-.13,0h-.19s-.08,0-.13,0l-.23,0s0,0,0,0v-.06s0,0,.07-.06l.06,0,0,0,0,0h0l0,0h0s0,0,0,0,0,0,0,0l.05,0h0l0,0a0,0,0,0,0,0,0l0,0s0,0,0,0,0,0,0,0l.07-.07,0,0h0L33.7,28s0,0,0,0h0l0,0s0,0,0,0l0,0,.08-.08s0,0,0,0a1.26,1.26,0,0,0-.29.12l-.06,0h0l-.15.13,0,0,0,0-.06.06,0,0s0,0,0,0l0,0,0,0a.23.23,0,0,1-.1.07l0,0h0l0,0-.15.09s-.15.1-.19,0v0l0,0,0,0,0,0s0,0,0-.05l0,0,.09-.07,0-.05.14-.12a.09.09,0,0,1,0,0l0,0s0,0,0,0l.12-.1.16-.14h0s0,0,0,0,0,0,0,0l.15-.13h0l0,0h0l0,0h0l0,0,0-.05s0,0,.06-.07v0l0,0s0,0,0,0h0c0-.05.06-.06.08-.11s-.06,0-.08.05l-.13.09,0,.06h0l-.11.09,0,0,0,0h-.05s0,0,0,0h0l-.07.06-.06.05,0,0s0,0,0,0h0s0,0,0,0l0,0a0,0,0,0,1,0,0l0,0h0a0,0,0,0,0,0,0l0,0h0l-.11.08a.11.11,0,0,1-.06,0l0,0,0,0-.1.08a.18.18,0,0,0-.07.05l0,0,0,0v0h0s0,0,0,0l0,0h0s0,0,0,0h0l0,0s0,0-.07,0h-.06s0,0,0,0a0,0,0,0,1,0,0s0,0,0,0,0,0,0,0a.15.15,0,0,1,.06-.05l.06,0,0,0h0a0,0,0,0,1,0,0l0,0h0l0,0s0,0,0,0l0,0h0l.06-.06.15-.13,0,0h0l0,0,0,0a.69.69,0,0,0,.13-.11l.06-.06,0-.05,0,0h0a0,0,0,0,1,0,0h0a.61.61,0,0,1,0-.06l0,0,0,0h0s0,0,0,0,0,0,0,0l0,0-.08.05-.07.05-.1.08h-.09l0,0-.05,0,0,0h0l-.05,0s0,0,0,0h0l0,0,0,0,0,0-.28.17-.12.07H32s0,0,0,0h0s0,0,0-.05h0s0,0,0,0l0,0h0s0,0,0,0l0,0s0,0,0,0h0l.08-.06,0,0,.07-.06,0,0v0s0,0,0,0l0,0,0,0s0,0,.05,0a.32.32,0,0,1,.1-.1h0s0,0,.05-.06l0,0h0a0,0,0,0,0,0,0l0,0h0s0,0,0,0l0,0,0,0s0,0,0,0h0l0,0h-.05l-.07,0,0,0h0l-.05,0,0,0h0l0,0h0a1.15,1.15,0,0,1-.19.14h0l0,0a.57.57,0,0,1-.13.08.32.32,0,0,1-.09,0s0-.06,0-.08,0,0,0,0h0l0,0s.05-.05.08-.06,0,0,0-.06,0,0,0,0l.05,0a.12.12,0,0,0,0-.05c.05-.05.11-.1.15-.15l0,0h0l0,0a.15.15,0,0,1,0-.06s0,0,0-.05h0s-.06,0-.08,0h0l0,0h0l-.07,0a0,0,0,0,0,0,0l0,0,0,0s0,0,0,0,0,0,0,0l0,0,0,0h0s0,0,0,0a.05.05,0,0,0,0,0h0s0,0,0,0l-.06,0s-.1,0-.1,0,0,0,0,0a.06.06,0,0,0,0,0h0v0h0s0,0,0,0l0,0,0,0a.08.08,0,0,0,0,0h0l.06-.08s0,0,0,0l.05,0,.06-.07s0,0,0-.06,0,0-.06,0L32,27h0s0,0,0,0l0,0h-.06a0,0,0,0,0,0,0h0v0h0a.08.08,0,0,1-.08,0c-.06,0-.07,0-.08-.09a.21.21,0,0,0,.07-.11l0,0s0,0,0,0a0,0,0,0,0,0,0h0a0,0,0,0,0,0,0l.08-.09a0,0,0,0,0,0,0l0,0s0,0,0,0l-.08,0,0,0h0l0,0h0l0,0,0,0s0,0,0,0h-.13l0,0-.05.07s0,0,0,.07h0a.24.24,0,0,0,0,.07v0a0,0,0,0,0,0,0s0,0,0,0l0,.07v0a0,0,0,0,1,0,0s0,.05,0,.07,0,0,.05.05,0,0,0,.07a.17.17,0,0,0,0,.1l0,.08,0,.08v0s0,0,0,0a0,0,0,0,1,0,0v0s0,0,0,.05V28h0s0,0,0,.07v.05a.43.43,0,0,1,0,.05v0s0,.07,0,.1h0a.25.25,0,0,0,0,.08l0,.07v0s0,0,0,0,0,0,0,0,0,0,0,.05h0l-.06.06-.07.05h0l-.05,0s0,0,0,0h-.06a0,0,0,0,1,0,0s0,0,0,0l0,0h0s0,0,0,0,0,0,0,0l0-.05s0-.05.07-.05,0,0,0,0a.15.15,0,0,0,.06-.05l0,0s0,0,0,0,0-.07,0-.1,0,0,0,0h0l-.05,0s0,0,0,0a0,0,0,0,1-.09,0,.08.08,0,0,1,0-.08l0-.07,0,0h0v0l0-.05a.2.2,0,0,0,0-.05.11.11,0,0,0,0-.06s0,0,0,0-.05,0-.08.05-.05,0-.09,0a.07.07,0,0,1-.06,0s0,0,0,0h0a.81.81,0,0,1,.06-.08h0l.09-.08s0,0,0,0l-.07,0h-.16s0,0,0-.05v0a1.11,1.11,0,0,1-.07-.16.05.05,0,0,0,0,0,0,0,0,0,0,0,0,.43.43,0,0,0-.05-.12c0-.06,0-.09,0-.16s0,0,0-.06a.09.09,0,0,0,0-.05l0,0a.06.06,0,0,0,0,0,.41.41,0,0,1,0-.08l0,0a.07.07,0,0,1,0-.05.15.15,0,0,0,0-.07.31.31,0,0,0,.09-.11s0,0,0,0h0l-.11,0a1.08,1.08,0,0,0,0-.18l.05-.06.06-.05,0,0,0,0,.08-.08a0,0,0,0,0,0,0h0s0,0,0,0a.3.3,0,0,0,0-.08l0,0a0,0,0,0,1,0,0l0,0a.14.14,0,0,0,0-.06s0,0,0,0l0,0a1.14,1.14,0,0,1-.15.16l-.12.09-.14.07c0-.07-.09-.13-.07-.22a.17.17,0,0,0,.08-.06h0l.05,0,0,0h0v0h0l.16-.12h0l0,0s0,0,0,0,0,0,0,0a.54.54,0,0,0,.12-.09l0,0s0-.05.05-.06h0s0,0,0,0l0,0a.2.2,0,0,1,0,.07v0a.31.31,0,0,1,0,.13v0h0v0s0,0,0,0v0a.53.53,0,0,0,0,.19v0a.07.07,0,0,1,0,.05s0,.07,0,.11v.06l0,0s0,.05,0,0,0-.09,0-.14l0,0,0,0v-.08a.12.12,0,0,0,0-.08h0a.23.23,0,0,1,.06-.12s0,0,0,0l0,0s0,0,0,0a0,0,0,0,1,0,0v0a.09.09,0,0,1,0,0,.25.25,0,0,0,0-.07s0-.07,0-.11a.17.17,0,0,1,0-.07v-.14a.11.11,0,0,0,0-.06s0,0,0,0a.09.09,0,0,0,0-.05v0a.38.38,0,0,1,0-.1,0,0,0,0,1,0,0,.69.69,0,0,1,0-.1v0s0,0,0,0l0-.09a.33.33,0,0,0-.07-.13v0l0,0a.56.56,0,0,0,0-.08l-.05,0,0,0-.05-.05v0l0,0L31,24.48l0,0s0,0,0,0h0l-.12-.12,0,0,.11.17.11.18s0,0,0,.05h0s0,0,0,0a0,0,0,0,1,0,0,.39.39,0,0,1,.06.11s0,0,0,.06a.24.24,0,0,1,.05.1v0s0,0,0,0v0l0,.08a.11.11,0,0,1,0,.06s0,0,0,0,.12,0,.19-.06a.17.17,0,0,1,0,.07s0,0,0,0a.13.13,0,0,1,0,.06h0l0,.07a0,0,0,0,1,0,0l0,0h0l0,0a.15.15,0,0,1-.05.09l-.08.1-.08.08,0,0-.05,0,0,0,0,0-.12.08,0,0s0,0-.08,0a.87.87,0,0,1-.09-.11s.05,0,.06-.05,0,0,0,0,0,0,0,0h0l0,0s0,0,0,0,0,0,0,0a.47.47,0,0,0,.09-.12l0,0,0,0a.05.05,0,0,1,0,0s0,0,0,0,0,0,0,0h0l0,0s0,0,0,0l0,0h0l0,0h0v0h0l-.05,0h0c-.07,0-.13.09-.21.12s0,0,0,0l-.1-.09s0,0,.06,0,.07-.06.1-.09l.05,0,0,0h0l0,0a.23.23,0,0,0,.08-.11h0s0,0,0,0,0,0,0,0a.11.11,0,0,1,.06-.07s0,0,0,0,0,0,0,0,0-.05,0-.06v0l0,0h0a.06.06,0,0,1,0,0s0,0,0-.05l-.14.16s-.06.05-.08.07l-.17.13a.27.27,0,0,1-.08.07h0l-.07.05h0l0,0,0,0h0l-.06,0h-.06l0,0-.06,0,0,0,0,0,0,0,0,0a0,0,0,0,1,0,0s0,0,0,0h.05l0,0,0,0a0,0,0,0,1,0,0h0s0,0,0,0l0,0,0-.05s0,0,.06,0l0,0s0,0,0,0,0,0,0,0h0l.05-.06s0,0,0-.05a.09.09,0,0,0-.06,0h0a1.24,1.24,0,0,1-.22.18.21.21,0,0,1-.11.07,1.88,1.88,0,0,1-.23.16s0,0-.07,0,0,0-.07-.05,0,0-.06,0a.36.36,0,0,1,.12-.15,0,0,0,0,0,0,0l.06,0,0,0h0l0,0h0s0,0,0,0l.1-.1s0,0,0,0l-.15.07-.16.08c-.07,0-.14.09-.21.12l-.08,0s0,0-.07,0,0,0-.06,0h0c0-.06,0-.1.06-.13l0,0h0a0,0,0,0,0,0,0h0l0,0a.23.23,0,0,0,.07-.07h0l0,0h0v0h0l0,0a0,0,0,0,0,0,0,.08.08,0,0,0,0,0l-.15.08-.12.06-.06,0a0,0,0,0,0,0,0c-.07,0-.13.08-.19.11h-.05a.05.05,0,0,1,0,0H29s0,0,0,0l0,0s0,0,0-.06h0l0,0,0,0,0,0h0s0,0,.05-.05h0l0-.06h0l0,0h0l0,0s0,0,0,0l-.19.08,0,0h-.05l-.06,0-.1,0h-.12a.15.15,0,0,1-.07,0s0,0,0-.06,0,0,0,0,0,0,0,0h0v0h0l.05-.05s0,0,0,0,0,0,0,0,0,0-.06,0l0,0h-.05a.32.32,0,0,0-.09,0l-.19,0s-.05,0-.05,0,0-.05,0-.07l.05-.05.06,0,0,0,0,0s0,0,0,0,0,0,0,0,0,0,0,0l-.27.1-.08,0h0s-.05,0-.08,0,0,0,0,0l-.06,0,0,0-.05,0h0l0,0-.09-.07-.06,0h0s0,0,0,0l0,0-.08-.07-.07-.05s0,0,0,0h0a0,0,0,0,1,0,0l0,0h0a.06.06,0,0,1,0-.09h0s0,0,0,0l.08-.06s0,0,0-.05a.1.1,0,0,0,0-.07s0,0-.06,0h0l0,0-.07,0-.07,0h-.06s0,0,0,0a.21.21,0,0,1-.11,0l0,0s0,0,0-.08l0-.05s0,0,0,0h0l.05,0h0l0,0,0,0a0,0,0,0,0,0,0h0l0,0s0,0,0,0,0,0,0,0-.08,0-.12.06l0,0-.1,0-.09,0-.05,0h-.06l-.06,0h-.06s0,0-.05,0,0,0,0,0h0l0,0s0,0,0,0l.09-.1,0,0,0-.06h0l.06-.06s0,0,0,0L27,23.5l-.08.05s0,0,0,0l-.15.07v0h0l0,0,0,0h0l0,0-.08,0h0l0,0h0a.05.05,0,0,1,0,0l0,0s0,0,0,0a.06.06,0,0,1,0-.07l0,0,.14-.2h0s0,0,0,0l-.16.1-.16.09-.21.1s-.09,0-.12,0,0-.06,0-.08h0s0,0,0,0,0,0,0,0a.15.15,0,0,0,.05-.06.56.56,0,0,1,0-.08.35.35,0,0,1,.05-.08s0,0,.05-.06a.36.36,0,0,0-.11,0l-.08.06,0,0s0,0,0,0,0,0,0,0h0l-.06.06h0a0,0,0,0,1,0,0l-.08,0,0,0h0s0,0,0,0-.06,0-.09,0a.14.14,0,0,1-.09,0s0,0,0-.05,0,0,0,0h0s0,0,0,0l.06-.08s0,0,0,0v0l0,0h0l0-.05s0,0,0,0,0,0,0,0l-.08,0,0,0a1.51,1.51,0,0,1-.18.09h0a.2.2,0,0,1-.11,0s0,0,0-.09a.27.27,0,0,1,.08-.07l0,0h0s0,0,0,0l0,0,0,0h0s0-.05.06-.05,0,0,0-.05l0,0,.05-.05h0a1.41,1.41,0,0,1-.31.08s0,0,0-.07l0-.13,0-.1s0,0,0,0a1,1,0,0,1,0,.18v0a.61.61,0,0,1-.05.12.37.37,0,0,1,0,.11l0,0a.61.61,0,0,0-.07.1s0,0,0,0l0,0,0,0s0,0,0,0,0,0-.07.07,0,0-.06,0-.11.06-.15.11l-.16.08-.05,0h-.05a.32.32,0,0,1-.09,0L24,24l-.36,0s0,0,0,0h-.5s-.05,0-.06,0h0a0,0,0,0,1,0,0H23c-.05,0-.12,0-.16,0l-.08,0-.13-.05h0l-.05,0s0,0,0,0l-.07,0,0,0,0,0,0,0h0v0h0l0,0s0,0-.05-.08a1,1,0,0,1,0-.1s0,0,0-.06h0v0l0,0s0-.05,0-.07,0-.06,0-.08.05,0,.1,0l.14,0h.08l0,0a1.6,1.6,0,0,1,.19.11l.06,0a.7.7,0,0,0,.16,0H23l.07,0h.1l.06,0,.06,0,0,0h0l0,0s0,0,0,0l0,0h0l.09-.07a.27.27,0,0,0,.08-.07s0,0,0,0a.94.94,0,0,0,.06-.24l0-.08a0,0,0,0,1,0,0,.06.06,0,0,0,0,0l.07-.05.06-.05,0,0,0,0,0,0a.13.13,0,0,1,.08,0h.07l0,0h.24s0,0,0,0,0,0,0,0h0l0,0h0s.05,0,.08,0,0,0,0,0a.13.13,0,0,0,.09,0l0,0h0l.09,0,.23.07h.06l0,0h0l.12,0,.27.05a.38.38,0,0,0,.15,0h.09l.1,0h.6l.35,0h.4l.16,0h.17a1,1,0,0,0,.17,0s0,0,.06,0l.07,0h0l0,0h.11l.05,0s0,0,0,0,0,0,0,0h0l.06,0,.11,0s0,0,0,0l.22.07h.06l.11,0h.06s.05,0,.06.05,0,.06,0,.08,0,0,0,0a0,0,0,0,1,0,0s0,.05-.05.07,0,0,0,0l0,0,.11,0,.12,0h.09l0,0h.09l0,0a.16.16,0,0,1,0,.1l0,.05,0,0,0,0a.08.08,0,0,0,0,0,.28.28,0,0,0,.12,0l.09,0,.08,0,.08,0h.1a.09.09,0,0,1,.06.08v0a.46.46,0,0,1-.07.07h0l0,0s0,0,0,0,0,0,0,0,0,0,.05,0h0l.14-.06.07,0c.08,0,.14,0,.15.05a.26.26,0,0,0,0,.08h0s0,0,0,0,0,0,0,.06,0,0,.05,0h.1l.1,0h.12a.14.14,0,0,1,0,.06s0,.06,0,.09l.17,0h.19l.09,0a.11.11,0,0,1,.08,0L31,24h0l.05,0,.05.05v0h0l0,0a0,0,0,0,1,0,0h0v0h0s0,0,0,0h0l0,.05a0,0,0,0,1,0,0,.18.18,0,0,1,.05.07.39.39,0,0,0,.06.11s0,0,0,0,0,0,0,0h0l0,0a.08.08,0,0,1,0,0h0l0,0s0,0,0,0,0,0,0,0a0,0,0,0,0,0,0s0,0,0,0,0,.05,0,.06,0-.05,0-.06a1,1,0,0,0,0-.12s0-.08,0-.12a.47.47,0,0,0-.06-.15l-.06-.13,0-.05a.08.08,0,0,1,0,0s0,0,0,0l0-.06a0,0,0,0,1,0,0,0,0,0,0,1,0,0,.09.09,0,0,1,.06,0h0l.05,0,0,.05,0,0c0,.05.05,0,.08,0l.05,0s0,0,0,0,0,0,.06,0,.06,0,.08,0a.16.16,0,0,1,0,.1l0,0a.11.11,0,0,1,0,.05v0h0s0,0,0,0v0s0,0,0,.06.06,0,.07,0l0,0,.11-.07.07,0,.08,0h0l0,0,.12,0s0,0,0,0a0,0,0,0,0,0,0s0,0,0,.05a.13.13,0,0,1-.06.07h0s0,0,0,0h0a0,0,0,0,0,0,0l0,0,0,0s-.07.08-.11.11h0l.08,0s0,0,0,0l.08,0,.07-.05h0l.08,0h0l0,0,.09-.07h0l0,0s.06,0,.08,0L32.6,24s0,0,0,0,0,0,.06.05,0,0,0,0l0,.05,0,0-.05.07h0l-.06.06h0a0,0,0,0,1,0,0l0,0a.08.08,0,0,1,0,0l0,0h0v0l0,0s0,0,0,0a.38.38,0,0,1-.09.09s0,0,0,.06-.11.09-.15.14,0,0,0,0,0,0,0,0l0,0h0s0,0,0,0h0l0,0s0,0,0,0l.15-.09,0,0,.11-.08.14-.11.13-.09h0l0,0a.1.1,0,0,1,.05,0l.07-.06.13-.09.15-.09c.05,0,.1,0,.16-.06a.33.33,0,0,1,.14,0s0,0,0,.06l-.06.06-.07.08a.3.3,0,0,1-.08.08l-.1.09s0,0-.07.05,0,0,0,0h0a0,0,0,0,1,0,0l0,0h0a.08.08,0,0,1,0,0s0,0,0,0,0,0,0,0h0l0,0,0,0s0,0,0,0l.26-.13.06,0,.13-.07,0,0h0l.12-.08.12-.07a.5.5,0,0,0,.12-.08l.06,0,.06,0,.07,0,0,0A.59.59,0,0,1,33.9,24H34L34,24a.08.08,0,0,1,.08,0s0,.06,0,.08a0,0,0,0,1,0,0l0,0,0,0,0,0h0a.75.75,0,0,1-.09.09l-.08.07s0,0,0,0A1.46,1.46,0,0,0,34,24.3l0,0,.09-.05,0,0h0l.13-.07.1-.06.1-.05.06,0,0,0h.18s.05,0,.08,0a.5.5,0,0,1-.08.12l0,.05,0,.06h0s0,0,0,0,.07,0,.09,0l.12-.07.06,0H35v0h0l.08,0,.13-.08.08,0,.09,0s0,0,0,0l0,0a0,0,0,0,0,0,0,.15.15,0,0,0,0,.07s0,0,0,.05,0,0,0,0,.06,0,.08,0l0,0,.1-.07.06,0,0,0,.11,0c.07-.07.22-.05.34,0s.06,0,.08,0l0,.06h0v0l0,0s0,0-.05,0l0,0h0v0s0,.05-.06.08a0,0,0,0,0,0,0s0,0,.06,0l.06,0,.1-.06,0,0,.06,0h0l0,0,0,0,.13-.06s0,0,.06,0h0l.05,0h0l0,0h0l.05,0h.06s.05,0,.06,0H37l.22,0h.22c.13,0,.25,0,.38,0h.74a.19.19,0,0,1,0,.08l-.06.05h0l-.12.13s0,0,0,0a.1.1,0,0,0,.07,0l.09-.05,0,0h0a1.53,1.53,0,0,1,.21-.14.35.35,0,0,1,.15-.07s0,0,0,0,0,0,0,0,0,0,0,0v0s0,0,0,0l0,0h0s0,0,0,0h0s0,0,0,0,0,0,.08,0l.1-.07h0l0,0h0v-.38h-.26a2.08,2.08,0,0,1-.25,0h0c-.19,0-.38,0-.58,0l-.38,0h-.28l-.18,0H35.56a.06.06,0,0,0-.06,0h-.13s-.06,0-.06,0h-.08l-.56,0h-.08a0,0,0,0,0,0,0h-.91l-.24,0h-.22l-.14,0h-.68l0,0h-.57l-.41,0H31l-.06,0h-.07l-.13,0h-.06l-.1,0,0,0h-.12l-.05,0h0l-.05,0h-.06l-.05,0-.08,0h0l-.05,0a.29.29,0,0,1-.1,0h0l-.08,0h-.12l0,0-.19-.06h0l-.05,0-.1,0h-.07l0,0-.14,0-.08,0-.12-.05h0s0,0,0,0l-.07,0-.1-.05h0l0,0h-.05v0h-.13l-.07,0s0,0,0,0h0l0,0h-.06L28,22.73h0l0,0h-.12l-.26-.07h-.07s0,0-.06,0h-.07s0,0,0,0l-.06,0H27.2l-.09,0h-.65s0,0,0,0H26l-.19,0h-.12a.55.55,0,0,1-.18,0h-.15a1.24,1.24,0,0,1-.22,0h0l-.11,0H25l0,0H24.6l-.18,0H24l-.05,0h0l-.05,0v0l-.05,0-.28.16-.05,0h-.05l0,0h0v0l-.05,0h0l0,0-.05,0h0l-.18.08h0l0,0h-.06c-.11,0-.21.08-.32.1l-.29.06L22,23s0,0,0,0a0,0,0,0,0,0,0,0,0,0,0,0,0,0l0,.07a.45.45,0,0,0,0,.12v.07a.05.05,0,0,1,0,0,.06.06,0,0,0,0,0s0,.06,0,.09,0,0,0,0,0,0,0,0h-.05l0,0h-.08s0,0,0,0l0,0h-.06l-.11,0-.12,0h0a2.21,2.21,0,0,1-.35,0h-.17c-.15,0-.28,0-.43,0H19.08l-.42,0-.13,0H18.4l-.22,0h-.84s0,0,0,0h0a1.92,1.92,0,0,1-.24,0h-.52l-.24,0H14.59v.4a.47.47,0,0,1,.12-.07l.08,0,.07,0h.08s.05,0,.08,0a.16.16,0,0,1-.07.12l0,0h0l-.05.05-.12.12s-.06,0-.06.08,0,0,0,0h0s0,0,0,0h0l0,0h0L14.9,24h0l0,0h0A.09.09,0,0,1,15,24l.07-.05,0,0,0,0h.06v0s0,0,0,0h0l.05,0,.12-.06s.05,0,.09,0a.07.07,0,0,1,0,.06l-.06.07,0,0,0,0h0s0,0,0,0v0l0,0,0,0s0,0,0,0,0,0,0,0h0l0,0s0,0,0,0h0s0,0,0,0h0l.06,0,.12-.06.13-.08h0a0,0,0,0,0,0,0h0l.07,0s0,0,0,0l.07,0h.05l.11-.05,0,0s.06,0,.1,0a.16.16,0,0,1,.1,0s0,0-.05.06a0,0,0,0,1,0,0h0a.16.16,0,0,0-.07.07s0,0-.06,0,0,0,0,0,0,0,0,0a.65.65,0,0,0-.16.17.05.05,0,0,0,0,0l.05,0,0,0,0,0h0l.08,0,.09,0,.06,0,.2-.08.09-.05.1-.05h.18s0,0,0,0h0l-.1.1-.05,0h0l-.17.14.12,0,0,0,.05,0a0,0,0,0,1,0,0h0l.08,0,0,0h0L16.8,24l.14-.06h0a0,0,0,0,1,0,0l0,0,.06,0h.08s.06,0,.08,0-.06.08-.09.11h0s0,0,0,0h0l0,0,0,0,0,0h0l0,.05s-.05,0-.05.05a1.21,1.21,0,0,0,.2-.09l.11-.05h0l0,0,.06,0h0l.09,0,0,0,.12,0h0l.08,0h.07s.05,0,.06,0,0,0,0,.05h0l-.05,0-.07.06v0h0a0,0,0,0,1,0,0,.09.09,0,0,1-.05,0h0l-.07.05s0,0,0,0,0,0-.05.06a.34.34,0,0,0,.16-.06l.05,0,.18-.08,0,0,.07,0L18,24l.07,0,.05,0,.06,0h.24c.34,0,.71,0,1.07,0,.16,0,.33,0,.49,0a.13.13,0,0,1,0,.08h0s0,0,0,0l0,0H20l.05,0,.07,0,.11,0a0,0,0,0,1,0,0h.12a.17.17,0,0,1,.1,0,.15.15,0,0,1,0,.07.15.15,0,0,0,0,.07l.12,0a.28.28,0,0,1,.13,0s0,0,0,0v0h0l0,0h.08a0,0,0,0,1,0,0H21a.54.54,0,0,1-.05.11L21,24l.06,0,.1,0h0v0h.11a.22.22,0,0,1,.08,0s0,0,.05,0a.09.09,0,0,1,0,.06.08.08,0,0,0,0,0,.17.17,0,0,0,0,.05h0s0,0,0,0,0,0,0,0l.17-.1.11-.06h0l0,0h0l.05,0,0,0a0,0,0,0,0,0,0H22a.24.24,0,0,1,0,.08s0,0-.06.06h0l0,0h0l-.06.06,0,0s0,0,0,0l.1,0h0a.32.32,0,0,0,.09,0l.2-.06a.07.07,0,0,1,.07,0s0,0,0,0h0a.19.19,0,0,1,0,.07l0,.05a.62.62,0,0,1-.14.14s0,0,0,0l.2-.11.11-.05a.36.36,0,0,1,.22-.06s0,0,0,0,0,0,0,0,0,0,0,0l0,0h0l-.08.07h0l-.06.07,0,0-.05,0,0,0,0,0a.61.61,0,0,0,.17-.07l.22-.08,0,0h0l0,0h0l.08,0,.1,0s0,0,0,0,0,0,0,.05,0,.08-.06.1,0,0,0,0l-.08.06s0,0,0,0h0v0h0s0,0,0,0h0l-.06.06,0,0s0,0,0,.05l.08,0,.08,0,.07,0,.08,0,.16-.09h0s0,0,0,0l.05,0h.06l.05,0a0,0,0,0,1,0,0,.34.34,0,0,1,.14,0l.13-.08,0,0h.06a0,0,0,0,1,0,.07h0l0,0-.05.07-.07.07h0s0,0,0,0a.18.18,0,0,0,.09,0l.07,0h0l.09-.05.1,0h0s0,0,0,0h0s0,0,0,0l0,0h0l.1,0,0,0h0s0,0,0,0,.07,0,.11,0,.05,0,.05,0a.06.06,0,0,1,0,.07h0s0,0,0,0a.43.43,0,0,0,.13,0l.07,0h.06l0,0h0l.06,0s0,0,0,0,.07,0,.11,0,0,0,0,0h0l0,0h.28a.11.11,0,0,1,.08,0h.38l.2,0,.18,0,.14,0,.14,0,.2,0,.1,0h0l.15.07h0l.05,0v0h0l0,0h0l.07,0s0,0,0,0h0v0h0s0,0,.06.05,0,0,.06.06l.06.05,0,0s0,0,0,0l0,0h0l.06,0,0,0,.05,0s0,0,0,0l0,0,.1.06.09.05L28,25l0,0,0,0,.09.05.18.08.19.08s0,0,0,0l.13.07a.94.94,0,0,0,.15.06s0,0,0,0l0,0a.2.2,0,0,1,.08,0h0l.09.05s0,0,0,0h.05l.13.07.09.05s0,0,0,0l.08.05h0l0,0h0a0,0,0,0,1,0,0h0l.06.06h0s0,0,0,0h0l0,0,0,0,.13.1,0,0,0,0,0,0,0,0,0,0a.46.46,0,0,1,.07.07l0,0,0,0,0,0h0l0,.07s0,0,0,0,0,0,0,0,0,0,0,.06l0,.05s0,0,0,0v0l.06.12h0s0,.05,0,.08h0s0,0,0,0h0a.2.2,0,0,0,0,.08l0,.08h0s0,0,0,0h0s0,0,0,0a.56.56,0,0,1,0,.12,0,0,0,0,0,0,0h0v0h0s0,0,0,.06,0,0,0,.05a.29.29,0,0,0,0,.09.14.14,0,0,0,0,.06v0l0,.05a.05.05,0,0,0,0,0l.06.18s0,.08,0,.12a.15.15,0,0,1,0,.06l0,0a.42.42,0,0,1,0,.12.43.43,0,0,0,0,.05.09.09,0,0,1,0,.05v.16l-.07.11h0l0,0,0,0,0,0,0,0h0l0,0h0l0,0h0a0,0,0,0,1,0,0s0,0,0,0l-.1.05-.1.05h-.05l0,0-.1,0s-.14,0-.14,0,0,0,0,0l.11,0,0,0s0,0,0,0,0,0,0,0h0a1,1,0,0,0,.18-.08l0,0,.05,0s0,0,0,0h0l.07-.07.06,0h0l.05-.06,0,0a.21.21,0,0,0,0-.1s0,0,0,0l0,0-.09.05h0l-.07,0,0,0h0l-.12.06h0l0,0h-.07l-.05,0-.14,0H30s0,0,0,0a.08.08,0,0,1,0-.08s0,0,.05,0h0a.05.05,0,0,0,0,0h0l0,0,0,0,.14-.07.08-.06.08-.06s0,0,0-.05l0-.05s0,0,0,0l-.14.05h-.07l0,0h0l-.08,0-.07,0-.08,0h-.14a.16.16,0,0,1-.05-.08l.06-.06.05,0c.05,0,.12,0,.16-.08s0,0,0,0l0,0,.09,0,0,0h0l0,0h0a0,0,0,0,1,0,0s0-.05,0-.07l-.11,0-.28.09a.32.32,0,0,1-.09,0,.41.41,0,0,1-.11,0s0,0,0-.05,0,0,0-.06l.05,0h.06l0,0h.05l0,0,0,0h0l.1-.05c.05-.06.12-.11.18-.17l.05-.06s-.05,0-.08,0l-.05,0h0l-.09,0-.08,0h0l0,0-.07,0,0,0h0a.65.65,0,0,1-.24,0s0,0,0,0a0,0,0,0,1,0,0,0,0,0,0,1,0,0h0l.07,0,0,0h.07s0,0,0,0h0l.05,0s0,0,0,0,0,0,0,0h0s0,0,0,0a0,0,0,0,1,0,0s0,0,0,0l0,0,.06-.07,0,0s0,0,0,0,0,0,0,0v0h0a.05.05,0,0,1,0,0,1.29,1.29,0,0,0,.06-.21s0,0,0,0,0,0,0,0h0v0l0,0,0,0h0a.3.3,0,0,1-.11.06l0,0H30s0,0,0-.06,0,0,0,0h0s0,0,0-.06h0l0,0s0,0,0,0,0,0,0,0h0a.05.05,0,0,1,0,0,.08.08,0,0,0,0,0l0,0a.64.64,0,0,0,.08-.14.19.19,0,0,0,0-.08.23.23,0,0,0,0,0s0,0,0,0,0,0,0,0a.36.36,0,0,0,0,.09l0,0a0,0,0,0,1,0,0h0v0h0s0,0,0,0h0L30,27l0,0h0l-.06.06h0l0,0h0l0,0-.1.08-.11.08-.09.06-.13.07s0,0,0,0-.06,0-.07,0,.11,0,.18,0h0l.07,0h.08s0,.05-.06.08l-.07.06h-.06l-.12,0h-.07l-.08-.07-.14-.14s-.06-.06-.09-.07v0h0l0,0,0,0-.06,0-.09-.06-.12-.06h0s0,0,0,0h0l-.08-.05L28.42,27s0,0-.05-.05l.05,0,.11-.08h0l.05,0,.06,0s0,0,0,0h0a.08.08,0,0,1,0,0l0,0h0l0,0,0,0h0l.05,0s0,0,0,0-.2.08-.3.13l0,0-.07,0a.42.42,0,0,1-.12,0h-.06l-.08,0c0,.05-.07,0-.08,0v0s0,0,0,0,0,0,.05,0,0,0,0,0h.07v0h0l.05,0,0,0,.13-.1a0,0,0,0,0,0,0l-.16.06-.09,0h0l-.08,0,0,0-.15,0h0s-.06,0-.08,0,0,0,0-.07,0,0,.06-.05l.06,0,.11-.07a0,0,0,0,0,0,0,.24.24,0,0,0,.08-.06l-.1,0h0l-.1,0H28l0,0-.07,0h-.12s0,0,0,0v0l0,0h0l0,0a0,0,0,0,1,0,0l0,0,0,0h0s0,0,0,0l0,0,.1-.08a.1.1,0,0,0,.05,0,1.68,1.68,0,0,0-.24.07l-.08,0h-.06l-.07,0c-.06,0-.15,0-.16,0s0,0,0-.06,0,0,0,0h0v0h0l.07-.07s.07,0,.08-.07a.3.3,0,0,0-.11,0h-.14l-.05,0h-.11s-.07,0-.09,0l0,0v-.08c0-.06.1-.08.15-.11h0v0l.08-.05,0,0,0,0s0,0,0,0h0l0,0h0l0,0s0,0,0,0h0s0,0,0,0,0,0-.06,0l0,0-.07,0h-.06s0,0,0,0l0,0-.17.05-.08,0-.08,0H27l0-.05s0,0,0,0h0s0,0,.05,0l.11-.08h0s0,0,0,0l.1-.07.1-.07s0,0,0,0l-.12.05a.39.39,0,0,0-.11.06l-.12.05,0,0h0l-.07,0h0l-.06,0h0l-.06,0-.06,0a.13.13,0,0,0,0,.06h0l0,0,0,0s0,0,0,0,0,.06.07.08A1.08,1.08,0,0,1,27,26s0,.05,0,.07a0,0,0,0,0,0,0h0a.06.06,0,0,1,0,0l0,0s0,0,0,.05,0,0,.06.06l.09.08a.1.1,0,0,0,0,0l0,0h0a.5.5,0,0,0,.08.07h0s0,0,.07.06l.1.08,0,0,0,0h0s0,0,0,0l0,0a.46.46,0,0,1,.07.07l.05,0h0l0,0,0,0h0l0,0,0,0h0l0,0,0,0h0l.06.05,0,0,0,0h0l0,0s0,0,0,0h0s0,0,0,0h0l0,0s0,0,0,0,0,0,0,0,0,0,0,0,0,0,0,0l0,0h0l.05,0h0v0h.05s0,0,0,0h0l0,0h0v0h0a0,0,0,0,1,0,0h0a0,0,0,0,0,0,0,.1.1,0,0,0,.05,0l.05.05h0l0,0,.09.09h0l0,0,0,.05,0,0,0,0,0,.07,0,.06c0,.08.09.16.12.24a.16.16,0,0,0,0,.09s0,0,0,.05a.15.15,0,0,1,0,.07s0,.05,0,.08,0,.07,0,.1,0,.07,0,.09a.67.67,0,0,0-.06.12.37.37,0,0,0-.05.11l-.05.05a.58.58,0,0,0-.12.1l0,0h0a.94.94,0,0,1-.12.09.87.87,0,0,0-.1.08l0,0h0l0,0s0,0,0,0l.2-.07h.05l0,0,.08,0,0,0c0-.05.07-.06.1-.09l0,0,0,0,.06-.05h.08l0,0a.08.08,0,0,1,0,0,.05.05,0,0,1,0,0h0a.31.31,0,0,1,0,.11s0,.05,0,.08a.2.2,0,0,0,0,.08s0,0,0,0,0,0,0,0a0,0,0,0,1,0,0s0,0,0,0h0s0,0,0,0h0a0,0,0,0,1,0,0h-.05l0,0h0l0,0h0s0,0,0,0l-.06,0-.05,0-.08.05s0,0,0,0a0,0,0,0,1,0,0s0,0,0,0h.21l0,0,.05,0,0,0,.06,0,0,0h0a.46.46,0,0,1,.07-.07l0,0,0,0h0l0,0a0,0,0,0,1,0,0h0l0-.06s0,0,0,0,0,.06,0,.13,0,.06,0,.06,0,.05-.06.08l0,0-.05.05h0l0,0h0l0,0-.14.08-.05,0-.06.05,0,0h0l0,0h0l0,0s0,0,0,0h.08l.13,0,.1,0a.06.06,0,0,1,.05,0l.05,0s0,0,0,0a.26.26,0,0,1,.15-.09c.05,0,0,.1,0,.11s0,0,0,0l0,0-.08.08,0,0-.14.07-.14.07h0s0,0,0,0h.12s.1-.06.12,0l0,0s0,0,0,.05l-.07,0,0,0-.05,0s0,0,0,0h0l-.09,0a.28.28,0,0,1-.12,0l0,0h0l0,0,0,0h0s0,0,0,0l0,0-.05,0a.43.43,0,0,0,0-.07l0,0h0s0,0,0,0a0,0,0,0,1,0,0l0,0s0,0,0,0l0,0,0-.05,0-.06,0-.05s0,0,0,0a.05.05,0,0,0,0,0,.35.35,0,0,0-.05-.08s-.06-.06-.08-.09a.08.08,0,0,1,0,0,.34.34,0,0,1-.08-.09l-.05,0s0,0,0,0,0,0,0,0v0h0s0,0,0,0l0,0h0l0,0-.05,0a.05.05,0,0,0,0,0s0,0,0,0h0a.09.09,0,0,0,0-.05s0,0,0,0,0,0,0,0h0l-.05,0h0l0,0h0a0,0,0,0,1,0,0h0a0,0,0,0,0,0,0h0l0,0h0l-.1-.09h-.05l0,0h0l-.05,0s0,0,0,0,0,0-.06,0-.05,0-.07-.06l0,0-.06,0h0l-.08-.06,0,0,0,0h0l0,0-.05,0h0l0,0,0,0h0s0,0,0,0h0l0,0h0l0,0h0l0,0h-.06l-.06,0,0,0h0s0,0,0,0h0l0,0h0s0,0-.05,0a.14.14,0,0,1-.08-.05s0,0,0,0l-.05-.05s.05,0,.07,0,0,0,.05-.05h0l0,0a0,0,0,0,1,0,0h0v0h0v0s0,0,0,0,.05,0,.07-.06l.06-.06v0h0l.13-.12s0,0,0,0-.16.09-.24.12l-.08,0-.07.05-.14.08h0l0,0s-.07,0-.09,0,0,0,0,0a0,0,0,0,0,0,0s0-.05.05-.06.17-.14.24-.21l0,0h0l.05-.06a.08.08,0,0,0,0,0,.27.27,0,0,0,.07-.08h0v0s0,0,0,0l-.06,0,0,0-.06,0h0l-.06,0,0,0-.1,0,0,0h0l0,0h0s0,0,0,0h0l0,0-.07.05,0,0,0,0-.05,0a.17.17,0,0,0-.06.06.08.08,0,0,0,0,0h0s0,0-.05.05l.09,0,.08,0s0,0,0,0l.05,0s0,0,0,0a0,0,0,0,0,0,0s.05,0,.08.05l.08.05s0,0,0,0h0c0,.05,0,.07,0,.08h-.2s0,0,0,0,0,0,.05,0l0,0h.07c0,.06.16.05.19.12l.08,0,.05,0s0,0,0,0h0l0,0a.61.61,0,0,1,.14.07v0s0,0,0,0h0s0,0,0,0h0l0,0h0l.09.06h0l0,0,.05,0,.05,0,0,0,.05,0s.07,0,.09.07,0,0,0,0l0,0h0l0,0h0s0,0,0,0h.07l0,0s0,0,0,0h0s0,0,0,0h0l0,0s0,0,0,0a.35.35,0,0,0,.05.08s0,0,0,.06,0,0,0,.05,0,.08,0,.1,0,0,0,0,0-.05.09,0,0,0,0,0,0,0,0,0,0,0,.05,0,0,0,0,.06a.1.1,0,0,0,0,0h0a.09.09,0,0,1,0,.08s0,.07,0,.07l0,0-.05,0h0l0,0s0,0,0,0,0,0,0,0h-.05l0,0-.07,0a.05.05,0,0,1,0-.08v0h0a0,0,0,0,0,0,0l0,0a0,0,0,0,0,0,0l0,0s0,0,0,0v0s0-.05,0-.08-.05.07-.07.09h0s0,0,0,0,0,0,0,0h0l-.07.07,0,.05h0l0,0-.06,0s0,0,0,0H27.4l-.07,0h0a.22.22,0,0,1-.16,0,.08.08,0,0,1,0,0h0s0,0,0,0,0,0,0,0l.06-.05.08-.05.05,0h0s0,0,0,0,0,0,0,0,0,0,0,0,0,0-.06,0l0,0s0,0-.05,0h0s0,0,0,0h0l-.16.08,0,0-.07,0h-.05l-.13,0h-.06l-.17,0s-.06,0-.1,0,0,0,0,0l.08,0h0l.07-.05h.07l.07,0s0,0,0,0l0,0h0l0,0h0s0,0,0,0h0s0,0,0,0,0,0,.05,0,0,0,0,0,0,0-.07,0l-.08,0-.08,0-.09,0h0l-.06,0h0l-.16,0h-.1s-.05,0-.05-.05,0,0,0,0v0s0,0,0-.05,0,0,0,0l.09-.05a.6.6,0,0,1,.11-.06c.06,0,.09-.07.14-.09s0,0,0,0l.06,0h.06s0,0,0,0,0,0,0,0l-.16.05h-.07l-.06,0s0,0,0,0l-.13,0a.2.2,0,0,1-.08,0,.33.33,0,0,1-.13,0s-.06,0-.08,0a0,0,0,0,1,0,0s0,0,0,0l0-.05s0,0,0,0h0l.05,0h0l0,0h0l.06-.05.11-.08.05,0h0s0,0,0,0a.92.92,0,0,1-.25.08.53.53,0,0,1-.17.08h-.14a.09.09,0,0,1-.11,0s0,0,0,0,0,0,0-.05l.12-.09L26.1,29l0,0h0s0,0,0,0l.06,0a.18.18,0,0,1,.07,0h0s0,0,0,0a.28.28,0,0,1-.13,0l-.08,0h-.05l-.24.09-.09,0-.09,0a.09.09,0,0,1-.07,0s0,0,0,0a0,0,0,0,1,0,0s0,0,.05,0l0,0h0l0,0,0,0h0l0,0h0s0,0,0,0l.07,0h0a.23.23,0,0,0,.09-.08l-.15.06h0l-.09,0h0l0,0-.08,0h0c-.06,0-.11.05-.17,0s0-.1,0-.1l.14-.12h0a0,0,0,0,1,0,0l.06,0h0l0,0s.09-.06.12-.1h-.07l-.18.07-.11,0-.05,0h0l0,0h0l0,0H25.2a.1.1,0,0,1,0-.06s0,0,0,0h0l.07-.08,0,0,0,0s0,0,0,0l.05-.05h0s0,0,0,0h0l.14-.11s0,0,0,0l-.34.16-.15.1-.06,0h0l-.1,0h0s0,0,0,0h0v0h0a.09.09,0,0,1,0,0l0,0a.7.7,0,0,1,.1-.08l0,0,.1-.06s0,0,0,0l.05,0,0,0,0,0h0l0,0h0l.06,0,0,0s0,0,0,0-.12,0-.17,0h-.05l-.08,0h0l0,0h-.06L25,27.66s-.08,0-.1-.08,0,0,0,0h0l-.06,0h-.09s0,0,0,0,0,0-.07,0h0l-.1,0-.06,0a.11.11,0,0,0-.06,0h0s0,0,0,0h0l-.08.06h0l-.05,0h0l0,0-.08.07h0s0,0,0,0h0l-.05,0h0s0,0,0,0h0s0,0,0,0h0l-.12.08-.07,0,0,0-.07,0a.07.07,0,0,1,0,0h0l0,0s-.06,0-.09,0a.07.07,0,0,1,0-.05c0-.05.07-.08.11-.1s0,0,.06,0h0s0,0,0,0v0h0a.1.1,0,0,0,.05,0l.07-.06s0,0,.07-.06h0s0,0,0,0h0l0,0h0s0-.05.07-.06a.08.08,0,0,1,.05-.05s0,0,0,0a0,0,0,0,1,0,0l0,0h0a0,0,0,0,0,0,0,0,0,0,0,0,0,0s0,0,0,0,0,0,0,0l0,0,0,0h0l0,0h0l.05,0s0,0,0,0l0,0h0l0,0c-.06,0-.1.06-.15.08l-.12.07h0s0,0,0,0l0,0,0,0h-.09s0,0,0,0,0,0,0,0h0l-.06,0a.18.18,0,0,0-.07,0s-.05,0-.06,0h0l0,0,0,0-.08.07,0,0,0,0h0a.12.12,0,0,1-.05.05h0l0,0h0l-.08.05-.07.06h0l0,0h0a.31.31,0,0,1-.12,0,.08.08,0,0,1,0-.09l0,0s0,0,0,0h0A.35.35,0,0,1,23,28l0,0,.05,0,0,0,.23-.19.15-.13.06-.06.08-.07s0,0,0-.05l.05-.05.1-.09.05-.05,0,0h0l.06-.07h0a.39.39,0,0,0,.08-.1c-.07,0-.12.09-.18.13h0s0,0,0,0h0s0,0,0,0h0l-.07,0,0,0h0a.18.18,0,0,0-.07.05l0,0h-.07l0,0h0s-.05.05-.08.06-.08.07-.12.08h0l-.05,0h0l-.05,0s0,0,0,0,0,0,0,0l-.08.06s0,0,0,0h-.06l-.08.07-.27.23,0,0h-.05v0h0l-.05,0-.06.06h0s0,0,0,0l-.05.05v0l-.06.05s0,0,0,0h0a.14.14,0,0,1-.13,0s0,0,0-.05,0-.06,0-.08l0,0,0,0h0l0,0,.09-.1.27-.25s0,0,0,0l0,0a0,0,0,0,1,0,0h0l0,0,.08-.07a.3.3,0,0,0,.08-.08l0,0,.09-.08a.6.6,0,0,1,.08-.08.1.1,0,0,1,.05,0l.07-.08a.73.73,0,0,0,.09-.08s0,0,.05,0h0v0h0s0,0,0,0,.08,0,.07-.09-.06,0-.08,0l0,0a.05.05,0,0,0,0,0l-.23.14h0s0,0,0,0h0l-.05.05h-.05l-.06,0s0,0-.05,0,0,0,0,0a.23.23,0,0,1-.11.08s0,0-.06.05-.05.06-.08.07h0a.08.08,0,0,0,0,0l-.05,0-.09.07-.13.09,0,0h0s0,0-.05.05h0s0,0,0,0,0,0,0,.05,0,0,0,0l0,0h0a0,0,0,0,1,0,0s0,0,0,0H21.7l0,0s-.07,0-.07,0,0,0,0,0a.65.65,0,0,1,.11-.12h0a0,0,0,0,1,0,0l.07-.07.08-.06a.34.34,0,0,0,.08-.09h0s0,0,0,0a0,0,0,0,1,0,0,.46.46,0,0,0,.07-.07l.12-.12h0l.08-.08,0,0s0,0,0,0l0,0,0,0,.14-.13.09-.07h0l0,0h0l.05-.06h0l0,0s0,0,0,0l0,0h0a.31.31,0,0,1,.11-.09s0,0,0-.06h0v0h0l0,0a.34.34,0,0,0,.06-.06l-.07,0,0,0h0v0h0l-.08.05-.09.08,0,0a.18.18,0,0,1-.07.05l-.27.22,0,.05h0l-.14.11h-.05l-.15.13h0l0,0a0,0,0,0,0,0,0l0,0h0l-.07.05-.05,0s0,0,0,0,0,0,0,0l-.05,0,0,0,0,0-.06,0-.08.08h0l0,0h0l-.07,0-.05,0s-.07.05-.1,0l0,0s0,0,.06-.06l.05-.06h0l.05,0s0,0,0,0l0,0a0,0,0,0,1,0,0s0,0,0,0a0,0,0,0,0,0,0h0l0,0,.06,0s0,0,0,0h0l.06-.06h0l0-.05,0,0,0,0,0,0s0,0,0,0l0,0,0,0,.05-.05,0,0h0l0-.06.15-.12.07-.07h0s0,0,0,0a.3.3,0,0,1-.11.06s0,0,0,0h0s0,0-.05,0l0,0h0l0,0,0,0,0,0,0,0s0,0,0,0h0l-.06.05h0s0,0,0,0l0,0,0,0,0,0s-.05,0-.06,0l0,0-.09.08-.1.09h0a0,0,0,0,1,0,0l0,0h0a1.31,1.31,0,0,1-.11.12l0,0s0,0,0,0h0v0s0,0,0,0,0,0,0,0-.05,0-.08,0a.1.1,0,0,1,0-.08s0-.05,0-.08l.06,0h0l0,0a0,0,0,0,0,0,0h0a0,0,0,0,0,0,0l.14-.15h0v0h0l0,0h0l0,0h0s0,0,0,0l.16-.15h0s0,0,0,0l0,0,.05-.06h0l0,0s0,0,0,0a0,0,0,0,1,0,0s0,0,0,0h0v0s-.05,0-.06,0h0l0,0,0,0s0,0,0,0h0l-.14.11,0,0h0l-.05,0v0h0l-.06.05-.09.07h0l0,0h0l0,0h-.05a0,0,0,0,1,0,0l-.13.1-.07.05-.08.07h0l-.18.17,0,0,0,0-.05.05s0,0-.06,0h0s0,0,0,0,.05,0,.05-.09,0,0,0,0l0,0a0,0,0,0,1,0,0,.27.27,0,0,0,.07-.08l0,0,0,0s0,0,0,0,0,0,.06-.07h0l.05-.06h0l0,0h0v0h0s0,0,0,0l0,0,0,0v0l0,0h0l0,0,.05-.06h0s0,0,0,0,0,0,0,0h0s0,0,0,0h0a.05.05,0,0,0,0,0l-.05,0,0,0,0,0-.11.07-.08.06-.11.08,0,0-.13.11-.17.17-.05,0s0,0,0,0L20,28l0,0,0,0,0,.05h0s0,0-.05.05l0,0-.09.08,0,0,0,0,0,0,0,0-.06,0a.1.1,0,0,0,0,0l-.06,0s0,0-.06,0,0,0-.05,0,0,0,0,0a.05.05,0,0,1,0,0,.24.24,0,0,0,.06-.1.17.17,0,0,0,.06-.06l0,0h0l.08-.1.05,0,.05-.06a0,0,0,0,1,0,0l.07-.07,0,0s0,0,.05,0l0,0s0,0,0,0a0,0,0,0,1,0,0s0,0,.06,0a.21.21,0,0,0,0-.06h0l0-.05h0s0,0,0,0l0,0v0s0,0,0,0l.06-.05s0,0,0,0l0,0h0a.12.12,0,0,0,.05-.05h0s0,0,0,0,0,0,0,0,0,0,0,0h0s0,0,0,0h0l.07-.07a0,0,0,0,0,0,0h0v0l0,0h0l.09-.08.05,0h0a0,0,0,0,0,0,0h0s0,0,0,0,.05,0,.05-.06,0,0,0,0l0,0a1.13,1.13,0,0,0-.21.15l0,0,0,0h0s0,0,0,0l-.08.05h0l0,0h0l0,0-.05,0,0,0h0l-.05,0h0s0,0,0,0v0l0,0,0,0,0,0h0l0,0-.05,0,0,0h0s0,0,0,0h0l0,0,0,0,0,0-.06.05,0,.06,0,0,0,0-.06.05a1.14,1.14,0,0,0-.11.11h0a0,0,0,0,0,0,0L19,28.3s0,0,0,0l0,0-.09.08h0v0l0,0,0,0h0s0,0,0,0h0l0,0-.05,0-.06,0h-.05a.08.08,0,0,1-.05-.05l.06,0v0a.08.08,0,0,0,0,0l.07-.06.09-.1,0-.05,0,0h0A.24.24,0,0,1,19,28.1l0,0h0l.05-.05c.07-.06.12-.13.19-.19h0l0,0s0,0,0,0h0s0,0,0,0h0a0,0,0,0,1,0,0h0s0,0,0,0a.46.46,0,0,0,.07-.07l0,0h0l0,0,.06,0,.06-.06s0,0,0,0,0,0,0,0h0l0,0a.69.69,0,0,0,.13-.11h0s0,0,0,0l0,0L20.1,27l0,0h0s0,0,0,0l-.08.05a0,0,0,0,1,0,0l0,0H20l0,0h-.08a.59.59,0,0,1-.11.08l0,0-.08.06s0,0-.06,0h0l-.09.07-.07.05h0l-.08.06a.39.39,0,0,0-.1.08l-.05,0,0,.05h0c-.06.08-.16.14-.22.21a.14.14,0,0,0-.07.08s0,0,0,0l-.06,0a.29.29,0,0,0-.07.08s0,0,0,0h0l0,0-.1.1-.11.11-.06.05s0,0,0,0l-.14.12,0,0,0,0a.22.22,0,0,0-.08,0,.14.14,0,0,1,0-.07.13.13,0,0,1,0-.07s0,0,0,0v0l0-.06h0l.08-.08h0l0,0v0a.73.73,0,0,0,.09-.08l0,0h0v0h0l0,0,.06-.05.05,0h0l0,0,0,0h0l0,0v0h0l.06-.06h0s0,0,0,0l.07-.07,0,0,0,0,0,0s0,0,0,0l0,0s0,0,0,0a1.34,1.34,0,0,0-.24.12h0l0,0h0l-.06.06,0,0h0v0l-.06,0-.05,0-.05.05s0,0-.05,0l-.05,0-.11.09-.1.09a1.8,1.8,0,0,0-.19.2s0,0,0,0a.46.46,0,0,0-.07.07l0,0h0a.21.21,0,0,0,0,.06l0,0,0,0,0,0-.09,0h-.3s0,0,0,0l0,0h-.9l-.41,0a.65.65,0,0,1-.14,0h-.41l-.07,0h-.55v.34h.28l.36,0h.15l.27,0,.35,0h.21l.64,0h.42L18,29l.19,0h.69a2.81,2.81,0,0,0,.41,0h.07c.27,0,.54,0,.8,0,0,0,0,0,0,0s0,0,0,.05v0s0,.11.05.14h0s.05.08.08.11,0,0,0,0h0l0,0h0s0,0,0,0l0,.08s0,.06,0,.08l.07.12.1.09,0,0,.06,0,0,0,.18,0,.1,0h.2s0,0,0,0,0,0,0,0,0,0,.05,0l.05,0s.07,0,.09,0,0,0,.06,0,0,0,0,0,0,0,0,0,0,0,0,0l0,0v0a0,0,0,0,1,0,0l0,0,0,.08,0,.06,0,0,0,0h.05s0,0,0,0h0l0,0h0v0h0l0,0,0,0h0l.12.07a.5.5,0,0,0,.29.08l.26,0h.19s0,0,0,0a.17.17,0,0,1,0,.07l0,0s0,0,0,.05l0,0s0,0,0,0a.08.08,0,0,0,0,0v0a.47.47,0,0,0,.1.1h0s0,0,0,0l0,0a.13.13,0,0,0,.06.05l0,0,0,0,0,0h.11l.11,0,.08,0h0l.11,0H24c.09,0,.17-.06.26-.07s0,0,0,0a0,0,0,0,1,0,0s0,0,0,0,0,0,0,0a.6.6,0,0,0,.09.13l.05.05,0,.05,0,0s0,0,.08.06h0l.05,0h0l.16.08,0,0a0,0,0,0,1,0,0h0l.13,0h.18s.12,0,.13,0h0s0,0,0,0h.08l.06,0h.07l.07,0h0l0,0h0l.06,0h0l.07,0a.26.26,0,0,0,.13-.06h0a0,0,0,0,1,0,0l.06,0,.21.12.11.07,0,0,.06,0,0,0h.05l0,0h.16l.07,0A.5.5,0,0,1,27,32l.08,0,.06,0h.05l0,0h.05l.06,0h0l0,0,0,0h0l0,0a0,0,0,0,1,0,0l0,0s0,0,0,0,0,0,0,0v0l0,0,0,0h0s0,0,0,0a.09.09,0,0,1,0-.05,0,0,0,0,0,0,0,0,0,0,0,0,0,0,0,0,0,0,0,0,0,.06.06,0,0,0,0,0s0,0,0-.06a.56.56,0,0,0,0-.13h0s0,0,0,0,0,0,0,0,0-.07,0-.09h0a0,0,0,0,1,0,0h0l.05,0,0,0H28s0,0,0,0l.08,0,.06,0a.75.75,0,0,0,.19,0l.1,0,.07,0h.05v0s0,0,0,0h0l.05,0,.09-.07a.47.47,0,0,0,.1-.1h0l0-.06h0l0,0a0,0,0,0,0,0,0l0-.05s0,0,0-.05l.06,0h.06l.05,0h.23l.06,0h.05l.09,0,.05,0s0,0,.05,0l.18-.15,0-.05s0,0,0,0h0a.33.33,0,0,0,.06-.1A1,1,0,0,0,30,30.1h0s0,0,0-.07,0,0,0,0,.07,0,.1,0l.07,0h0s0,0,0,0l.05,0,0,0,.11-.08,0,0a1.27,1.27,0,0,0,.12-.1l.05-.05h0l0,0,0-.05s0,0,0,0h0l0,0s0,0,0,0a0,0,0,0,1,0,0h0a.22.22,0,0,1,.05-.08s0,0,0,0l.17-.06.12,0,0,0h0l0,0,.06,0h0l0,0h0l0,0h0l.06,0h0a.34.34,0,0,1,.14,0,.09.09,0,0,1,.07,0h.74a2.8,2.8,0,0,1,.41,0l.72,0L34,29h.13l.27,0h.13l1.25.09h.29l.09,0h0l.12,0h.42l.48,0,1.9.13Zm-16.4-6,.05,0h.06l.08,0L23,23a.05.05,0,0,0,0,0l.1,0,.05,0,0,0,0,0,.05,0,.06,0h0l.08,0,0,0h.05s0,0,0,.06v.05a0,0,0,0,0,0,0l0,0,0,0,0,0,0,0,0,0,0,0-.07,0-.05,0h0s0,0,0,0,0,0,0,0h0l-.08,0a.29.29,0,0,1-.14,0h-.05s0,0-.05,0l-.06,0s0,0-.05,0l.08,0m2.7,6.58.09,0,.06.06h0l0,0,0,0v0h0a0,0,0,0,1,0,0h0a0,0,0,0,0,0,0,.15.15,0,0,1,0,.07s0,0,0,0H25.6l-.11,0-.14.07s0,0,0,0h.13s0,0,0,0,0,0,0,.05l0,0s0,0,0,0h0l-.1.07h-.07s0,0,0,0h-.08l-.07,0h0l0,0h0v0l-.06,0a.12.12,0,0,1,0-.09s0,0,0,0a0,0,0,0,1,0,0s0,0,0,0l0-.05v0l0,0h0l0,0h0l.08,0,.05,0s0,0,0,0a0,0,0,0,0,0,0s-.09,0-.13,0a0,0,0,0,0,0,0,.08.08,0,0,1,0-.08h0v0s0,0,0,0h0a.27.27,0,0,1,.09,0m-.48.85.09,0s0,0,0,0a0,0,0,0,0,0,0s0,0,0,0h0s0,0,0,0h0s0,0,0,0l0,0s-.06,0-.11,0h-.05s0,0,0,0a.14.14,0,0,1,0-.06h0s0,0,0,0m-.24-2.57h0s0,0,0,0,0,0,.05,0h.05l0,0h0s.05,0,.07,0,0,0,0,.05,0,0,0,0S25,28,25,28s0,0,0,0,0,0,0,0a.18.18,0,0,0-.08.05h0l-.17.11h0s0,0,0,0H24.5l-.05,0s-.08,0-.1,0,0,0,0-.06l0,0h0l0,0,.21-.18,0,0m-1,.44,0,0h0l.07-.07.15-.13.17-.13,0,0,0,0h0l0,0h0l0,0h0l.07-.06.05,0,0,0h0a.19.19,0,0,1,.12,0,0,0,0,0,1,0,.07l0,0,0,0a.58.58,0,0,1-.12.1l-.06,0,0,0h0s0,0,0,0,0,0,0,0h0s0,0,0,0l-.06,0,0,0h0a.9.9,0,0,1-.1.09l-.12.08s0,0,0,0l-.05,0-.05,0-.09.05h0s-.06.05-.1,0,0,0,0-.05m.05.29h0l0,0s0,0,0,0,0,0,0,0h0l0,0,.06,0s0,0,.06,0,0,0,0,0a.08.08,0,0,1,0,.09l0,0-.09,0,0,0h0m-1.47.14.12-.08h0l0,0,0,0h0l0,0h0s0,0,.06,0l0,0h.07l.05,0h0l.15,0h.23l.06,0,.05,0h0l0,0,0,0a.56.56,0,0,1,.05.08l0,0s0,0,0,0l0,0,0,0s0,.08.07.11a.34.34,0,0,1,0,.1v0h0a0,0,0,0,1,0,0,.13.13,0,0,1,0,.06.43.43,0,0,1,0,.05.28.28,0,0,1-.06.09l0,0h0l0,.05s0,.05-.06,0l0,0h0s0-.07,0-.08v-.06l0-.06,0,0s0,0,0,0a.46.46,0,0,0-.07-.07v0h0c-.06-.05-.12-.12-.18-.18l0,0-.07-.06h0s0,0-.08,0a.51.51,0,0,0-.22,0v0h0l-.05,0-.06,0s-.1.05-.14,0,0,0,0,0m1.26,1a0,0,0,0,1,.05-.05s0,0,.05,0a.15.15,0,0,1,.07,0s.05,0,.08,0l0,0h0s0,0,0,0l.05,0s0,0,0,.05,0,0,0,.05a.22.22,0,0,1-.07.06h-.07l0,0h-.12s-.08,0-.13,0a0,0,0,0,0,0,0m-1.31-.68.05-.05s.05-.05.06-.08a.67.67,0,0,0,.12-.06h.13l.08,0h.06l0,0,.08,0,0,0A.16.16,0,0,1,23,29L23,29s0,0,0,0a0,0,0,0,1,0,0h0v0l0,0h0a.12.12,0,0,0,.05.05s0,.05,0,.08a.11.11,0,0,0,0,0,.15.15,0,0,1,0,.07s0,0,0,0,0,0,0,0h-.07l0,0-.07,0-.05,0,0,0h0l-.06,0s0,0,0,0h-.1l0,0s0,0-.05,0h-.07l0,0-.06,0v0a.16.16,0,0,1-.08-.06s0,0,0,0l0,0-.06-.08a.11.11,0,0,1,0-.09.58.58,0,0,1,0-.14c0-.05,0-.07.05-.1m-1.11.63s-.07,0-.12,0l-.13,0-.08,0h0l0,0h0v0h0s0,0,0,0h0l0,0,0,0h0a0,0,0,0,1,0,0s0,0,0-.07,0-.05,0-.07,0,0,0,0a.11.11,0,0,1,.06,0l.08.05,0,0h.06s0,0,0,0h0l.05,0,.05,0,.07,0h.06l0,0h0v0a0,0,0,0,1,0,0s0,0,0,.06m.51-.58a0,0,0,0,1,0,0l-.13.07s-.05,0-.08,0H21.4l0,0,0,0s0,.08.08.09,0,0-.06,0-.05,0-.07,0h-.12l-.07,0,0,0h0l0,0h0l-.05,0h0l0,0,0,0h0v0s0,0,0,0v0a.07.07,0,0,1,0-.05l0,0,0,0,0,0h0A.33.33,0,0,0,21,29h0l.07-.05s0,0,0,0h0a0,0,0,0,1,0,0h0s0,0,0,0,.06,0,.09-.06,0,0-.05,0a.1.1,0,0,0-.07,0l-.08,0L21,29h-.06l-.1,0s0,0,0,0l-.06,0h0s-.07,0-.1,0,0,0,0,0h0s0,0,0-.06l0,0h0l0,0,0,0a0,0,0,0,0,0,0h0l.06-.05h.05a0,0,0,0,1,0,0l.05,0a.33.33,0,0,1,.1-.06l-.12,0h0l-.08,0,0,0-.06,0s-.07,0-.1,0,0-.06,0-.08h0a0,0,0,0,1,0,0s0,0,0,0a.36.36,0,0,1,.17-.11l.06,0h.06l0,0H21l.05,0s.09,0,.12,0,0,0,0,0h.07a.22.22,0,0,1,.11,0h.08a.39.39,0,0,1,.11.06l.05,0h0s0,0,0,0l0,0,.05,0s0,.06,0,.07,0,.06,0,.1v0a.15.15,0,0,1,0,.06s0,.05,0,.08l-.06.07h0s0,0,0,0,0,0,0,0h0m1.35,1,0,0h0s0,0-.06,0a0,0,0,0,0,0,0h0s0,0,0,0h-.06l0,0-.1.05-.06,0-.09,0-.16,0h0l0,0a.17.17,0,0,1-.14,0h0l-.06,0-.06,0-.05,0h0l0,0,0,0s0,0,0,0h0a0,0,0,0,1,0,0h0s0,0,0,0h0a.11.11,0,0,1,0-.06s0-.05-.06-.07a.5.5,0,0,0,0-.12s0,0,0-.06,0,0,0,0,0,0,0,0v-.05s0,0,0,0h0a.1.1,0,0,1,0,0s0,0,0-.05,0,0,0,0h0v0l.06,0h0l.06,0a0,0,0,0,0,0,0s0,0,.06,0h0s0,0,0,0,0,0,0,.07l0,0h0s0,0,0,0h0a0,0,0,0,1,0,0h0l0,0,0,0h0a.5.5,0,0,0-.08.07H22l.13,0,.09,0s.11,0,.15,0h0s0,0,0,0l0,0a.3.3,0,0,1,0,.1v0h0l0,0h0l-.05,0s0,0,0,0a.2.2,0,0,1-.07.06v0s0,0,0,0,0,0,.05,0h0l.08,0,.09,0,0,0h0l.06,0,.06,0,.07,0h0s0,0,0,0h0s.05-.05.1,0l.15-.07s0,0,0,0a.08.08,0,0,1,.08,0s0,0,0,.05l0,0a.17.17,0,0,1-.06.06l-.05,0,0,0s-.05.05-.08.07h0l-.12.07s.05,0,.08,0h0s0,0,0,0,.09,0,.14,0l.05,0a.82.82,0,0,0,.19-.09h0s0,0,0,0a0,0,0,0,0,0,0h0l0,0a.09.09,0,0,1,.05,0h0s0,0,0,0,0,.07-.06.1l0,0s0,0,0,0,0,0,0,0l0,0s0,.05-.06.06,0,0-.06.06m1.53.35v0l0,0s0,0-.06.05l-.1.12c-.05,0-.09.1-.14.14l0,0,0,0-.09.08,0,0-.15,0h-.06l-.09,0h-.19l-.05,0h0l0,0h0l-.05,0,0,0,0,0h0l-.05,0,0,0,0-.06a.22.22,0,0,1,0-.13s0-.05,0-.07,0,0,0,0l0,0a.19.19,0,0,1,0,.07s0,0,.05.07l.06,0h0s0,0,0,0h.07l.07,0h.17a.87.87,0,0,0,.23,0l.06,0,.09,0H24l.11-.09s0,0,0,0l0,0s0,0,0,0a.7.7,0,0,0-.12,0h0l-.16.07a.42.42,0,0,0-.15,0,.5.5,0,0,1-.17,0h0s0,0,0,0,0,0,0,0a.08.08,0,0,1,0-.05h0l.05,0,.05,0,0,0a.2.2,0,0,0,.08,0l.07,0h0a0,0,0,0,1,0,0l0,0s0,0,0,0,.08,0,.11,0h.06l.05,0,.06,0,.06,0a.23.23,0,0,1,.1,0s0,0,.05-.05l-.25.07-.13,0-.12,0-.25.07a2.44,2.44,0,0,1-.26.06h-.22s0,0,0-.05l.07,0s0,0,0,0h.07l0,0h.07l.06,0,.06,0h.06l.07,0,.07,0,.07,0h0l.06,0,.18-.08A.16.16,0,0,0,24.3,30s-.06,0-.09,0l-.16,0-.21.05h0l-.09,0h-.09l-.09,0-.09,0-.08,0s-.07,0-.08,0,0,0,0,0h0a0,0,0,0,1,0,0,0,0,0,0,0,0,0h.11l.11,0s0,0,.06,0h0l0,0,.07,0H24l.12,0a.08.08,0,0,1,.07,0h0a.15.15,0,0,1,.07,0h0s0,0,0,0l0,0s0,0,0,0,.06,0,.09,0h.08l.06,0h.07l0,0,0,0,0,0h0v0l0,0s0,0,0,0a0,0,0,0,0,0,0h0l0,0,0,0s0,0,.05-.06a.11.11,0,0,0,0-.06l0,0s0,0,0,0h0a.05.05,0,0,1,0,0v0l0,0,0,0s0,0,0-.06S25.08,29,25,29h0l-.05,0s0,0,0,0,0,0,0,0l-.05,0,0,0h0v0h0a.15.15,0,0,0-.08,0l-.13,0-.06,0H24.4s0,0-.06,0h-.05s0,0-.05.05h0l0,0,0,.05h0s0,0,0,.06h0s-.07.1-.1.16a1,1,0,0,1-.07.15h0a.3.3,0,0,0,0,.1s0,0,0,0,0,0,0,.06l-.09,0-.06,0s-.06,0-.09,0,0,0,0-.05,0,0,0,0v0l0,0,0-.08h0a0,0,0,0,1,0,0,0,0,0,0,0,0,0v0s0,0,0,0h0a.08.08,0,0,1,0,0h0s0,0,0,0h0l0,0a0,0,0,0,1,0,0h0v0l0,0s0,0,0-.05h0a0,0,0,0,0,0,0s.06-.05.08-.08l0,0s.05,0,.07-.06l.06-.07h0l0,0,0,0,0,0s.07,0,.1,0h0s0,0,.07,0a.22.22,0,0,0,.08,0h0a.54.54,0,0,1,.27.05h0a0,0,0,0,1,0,0l0,0h0l.05,0,0,0h.06s.05,0,.07.07,0,0,0,0,0,0,.05.05h0s0,0,0,0,0,.05.05.06a.06.06,0,0,0,0,0l0,0s0,.07,0,.1,0,0,0,0v0a.08.08,0,0,1,0,.05.06.06,0,0,1,0,0,.46.46,0,0,1-.07.16v0h0s0,0,0,0v0a.24.24,0,0,0,0,.1l0,.05s0,0,0,0l0,.07a.39.39,0,0,1-.08.1l0,0a0,0,0,0,1,0,0s0,0,0,.05l0,.06a0,0,0,0,0,0,0h0v0l0,0v0h0v0l-.08.09v0h0v0h0l0,0s0,0,0,0v0l0,.06a.43.43,0,0,0,0,.07h0M25,29.18a.11.11,0,0,0,0,.06l0,0h0s0,0,0,0h-.05l0,0-.19.06,0,0h0a0,0,0,0,0,0,0h-.06s0,0,0,0,0,0,0,0h.1c.08,0,.17,0,.22,0s0,0,0,.05a.46.46,0,0,0-.07.07s0,.05-.06.05,0,0,0,0l-.05,0-.07,0s-.06.05-.12,0l0,0h0l0,0h0l-.07,0a.28.28,0,0,1-.11-.08s0,0,0,0l0,0s0,0,0,0,0-.06,0-.08a.11.11,0,0,1,0-.05s0,0,0-.07,0-.08,0-.12l0-.08,0-.08h0v0h0l0,0a.16.16,0,0,1,.11-.1c.06,0,.14,0,.19,0s0,0,0,0h0l.05,0,.09,0,0,0h0l0,0h0s0,0,0,0l0,0,.06.05,0,0,0,0v0m.77,1.71s0,.05,0,.06a.21.21,0,0,1,0,.07s0,0,0,.06l0,0,0,.07,0,0h0l0,0h0v0h0l0,0-.07,0h0l0,0-.05,0h0l-.06,0,0,0-.07,0-.06,0h0a.85.85,0,0,0,.16,0h0l.08,0a1.27,1.27,0,0,0,.2,0h.09l.05,0v.07s0,0,0,0h0l0,0-.09,0H25.5l-.24,0h-.11l0,0H25l-.07,0-.08,0a0,0,0,0,0,0,0h-.1l0,0s0,0,0,0h0a0,0,0,0,1,0,0s.05,0,.09,0h0l0,0h.12l.05,0h0s0,0,0,0a.05.05,0,0,0,0,0,.38.38,0,0,0,.17-.07.33.33,0,0,1,.1-.06l.06,0,0,0s0,0,0,0l0,0h0l0,0s0,0,0,0a.18.18,0,0,0-.07.05l0,0-.09,0s-.05,0-.08,0l-.1,0h-.2a.45.45,0,0,1-.23,0s.05,0,.06,0a.52.52,0,0,0,.13-.06l.08,0h0l0,0h0a0,0,0,0,0,0,0H25v0h0l.13-.05s0,0,0,0,0,0,0,0h0v0h0l.07,0s0,0,0,0l0,0a1.15,1.15,0,0,0-.28.06h-.06s0,0,0,0L25,31l0,0h-.23s-.05,0-.07,0,0,0,0,0a.11.11,0,0,1,0-.06h0s0,0,.05,0l.06,0a.61.61,0,0,1,.25-.07h0l.07,0h0a.54.54,0,0,0,.21-.08l.09-.08.18-.17v0h0s0,0,0,0l0,0,0-.06v0l0-.06s0,0,0-.06h0a.39.39,0,0,0,.06-.11v-.07h0s0-.05,0-.06a.09.09,0,0,0,0,0,1.62,1.62,0,0,0-.18-.19.14.14,0,0,1-.08-.05H25.5s0,0,0-.05a.11.11,0,0,1,0-.05.15.15,0,0,1,0-.06s0-.05,0-.08h.08s0,0,0,0l.06,0,0,0a.61.61,0,0,1,.14.1l.06.05,0,0a0,0,0,0,1,0,0l0,0,0,.05a0,0,0,0,0,0,0,0,0,0,0,0,0,0s0,0,0,0l0,.08,0,.06v0h0s0,0,0,.06h0a.17.17,0,0,1,0,.1v0s0,0,0,0v0h0v.06s0,.06,0,.09a.2.2,0,0,0,0,.08l0,0a0,0,0,0,1,0,0v0h0l0,.05a.08.08,0,0,0,0,0v0h0l0,.05a.18.18,0,0,1-.05.07l0,.09a.08.08,0,0,1,0,0v0h0s0,0,0,0l0,0m1.69.47s0,0,0,.05,0,0,0,0a0,0,0,0,1,0,0l0,0,0,0,0,0h0l0,0-.06.05,0,0h0v0h0l-.05,0h0l-.06,0,0,0h-.09a.49.49,0,0,1-.17,0H26.7a.09.09,0,0,0-.05,0h0a0,0,0,0,0,0,0h-.06l0,0h0l0,0h0l0,0h0s0,0,0,0h0a.71.71,0,0,0-.14-.1h0l0,0s0,0,0,0,0,0,0,0h0a0,0,0,0,1,0,0h0l0,0-.05,0s0,0,0,0h0s0,0,0,0h-.09a.37.37,0,0,1,.07-.14l0,0a.17.17,0,0,0,0-.07A.08.08,0,0,0,26,31s0,0,0-.06,0,0,0-.05a.09.09,0,0,0,0-.05h0v0l0-.06v0l.05,0,0,0a.19.19,0,0,0,.05-.09l.06,0,0,0,0,0a1.29,1.29,0,0,1,.35-.05.6.6,0,0,1,.11.06s0,0,0,0h0l0,0s0,0,0,0,0,0,0,0h0l0,0h0s-.06,0-.07.08,0,0-.06,0H26.4a.26.26,0,0,0-.11.07l-.07,0h-.1l-.06,0s.06,0,.08,0l.07,0,0,0s.05,0,.09-.05h0l.05,0s0,0,0,0,0,0,.05,0l.11-.07,0,0h0l.06,0,0,0,0,0,0,0h0l0,0,.06,0h0s0,0,.06,0,0,.08,0,.12l0,0,0,.05s0,0,0,0l0,0,0,0,0,0s-.05,0-.06.07l-.06,0a0,0,0,0,1,0,0h0l-.1.07-.08,0h-.06v0h0s0,0,0,0,.06,0,.08,0l.06,0,.05,0,.09-.06h0l0,0s0,0,0,0,0,0,0,0l.08-.05,0,0,0,0h0l.06-.05h0l0,0s0,0,0,0h0s0-.06.09-.06.05-.08.1-.06a.06.06,0,0,1,0,.06.1.1,0,0,1,0,.07l0,0,0,0s0,0-.05.08a.34.34,0,0,0-.09.08l-.06.06h0l0,0h-.06l0,0-.05,0h0l0,0h0v0h0l0,0h.07s0,0,.05,0l0,0h0l.06,0h0s0,0,0,0l.05,0s0,0,0,0l.08-.05,0,0a0,0,0,0,0,0,0h0a.05.05,0,0,1,0,0l0,0,.07-.06,0,0s.09-.09.11,0h0s0,0,0,0h0v0h0a0,0,0,0,1,0,0s0,0,0,0l-.07.08-.05.05a0,0,0,0,0,0,0,.08.08,0,0,0,0,0h0a.5.5,0,0,1-.08.07l-.07.08.11-.05a.09.09,0,0,0,0,0l.06,0s0,0,0,0h0a.12.12,0,0,1,.08,0l.06,0s.05-.07.08,0a.11.11,0,0,1,0,.12m1.23-.86h0v0h0l0,0a.07.07,0,0,1,0,.05h0l-.06.05s0,0,0,0,0,0,0,0l0,0-.05,0a1.05,1.05,0,0,1-.11.07h0l-.05,0,0,0,0,0h-.08A.41.41,0,0,1,28,31l-.1,0,0,0s0,0,0,0,0,0,0,0h0l0,0h0s0,0,0,0l0,0h0l-.22-.16h0l0,0,0,0,0,0-.05,0-.12-.07-.1-.08H26.9l0,0,0,0,0,0s-.07-.07-.11-.08,0,0-.05-.06.06,0,.08-.05,0,0,.07,0h.05a.12.12,0,0,1,.07,0H27s0,.05,0,.07a.23.23,0,0,1-.12,0s0,0,0,0l.05,0H27l.06,0h.13l0,0h.13a.2.2,0,0,1,.08,0l0,0h0l.1-.06h.08s0,0,.07-.05,0,0,0,0h0a0,0,0,0,1,0,0l.08-.05h0s0,0,0,0l0,0h0s0,0,0,0h0s0,0,0,0,0,0,0,0l0-.05h0a.1.1,0,0,0,.05,0h0s0,0,0,0h0l0,0h0v.08l0,.05v0l0,.05,0,0s0,0,0,0,0,0,0,0h0L28,30l0,0s0,0-.06.07l-.06,0,0,0h0l-.1.06-.08.05h-.1s0,0-.05,0,.06,0,.08,0l.06,0,.07,0h0l0,0,.1-.05s0,0,0,0a.1.1,0,0,0,.09,0l.09-.05h0l0,0h0s0,0,.06-.05l0,0h0s.05-.07.09-.07l.05-.05s.05,0,.07,0a.08.08,0,0,1,0,0h0v0l0,0h0l0,0a.21.21,0,0,1,0,.06.17.17,0,0,0-.06.08l-.09.08-.07.06h0s0,0,0,0H28l-.05.05h0s0,0,0,0h0a0,0,0,0,0,0,0h0l0,0h.07s0,0,.05,0l0,0,.08,0,.05,0s.06,0,.07-.05h0l.08,0h0l.05,0,0,0,.07-.06,0,0s.08-.09.11,0,0,0,0,0l0,0-.06.09s0,0,0,0l0,.05h0l0,0s0,0,0,0l0,0a0,0,0,0,0,0,0,.5.5,0,0,1-.08.07l-.07.08.11-.05.05,0,.06,0v0l0,0,.05,0s0,0,0,0l.05,0s0-.05.06-.05.06.06,0,.11M30.81,29s0,0,0,0,0,0,0,.05h0l0,.05s0,0,0,0h0v0l0,0,0,0h0s0,0,0,0l-.05,0-.06,0-.14.05s-.14,0-.14,0,.07,0,.1-.06l0,0h0s0,0,0,0h0a.15.15,0,0,1,.07,0s.1-.06.13-.1h0l.09-.08.06-.05h0l0,0"/><path class="c" d="M39.14,28.38l0,0-.05,0,0,0-.06,0s0,0,0,0l-.1.06s0,0,0,0h0l-.06,0v0h0a0,0,0,0,1,0,0l-.05,0a.08.08,0,0,0,0,0,.09.09,0,0,0,0,.06.22.22,0,0,1,.08,0h.05s0,0,.06,0a0,0,0,0,1,0,0,.09.09,0,0,0,.07,0h0s0,0,0,0,0,0,0,0,0,0,0,0,0,0,0,0a.6.6,0,0,1,.13-.09Z"/><path class="c" d="M39.14,27.86l-.11.08-.26.2-.3.21,0,0h0l-.07.05s0,0,0,0l-.11.07,0,0h0a.23.23,0,0,0-.07.07l0,.06-.06,0s0,0,0,.07,0,0,.07,0h.08a0,0,0,0,0,0,0h0a1.23,1.23,0,0,0,.23-.08c0-.05.07-.07.11-.1l0,0,0,0,.07-.07a.1.1,0,0,1,.05,0l0,0,0,0,.05,0a.1.1,0,0,1,0,0c.07-.06.13-.13.19-.19a.76.76,0,0,1,.09-.09h0l0,0s0,0,.05-.05h0Z"/><path class="a" d="M139.38,35.18h-6.89l-2.11-5.08H118.89L117,35.18h-6.78L120.55,9.49H128Zm-15-19.55-3.76,10h7.91Z"/><rect class="a" x="142.21" y="9.5" width="6.4" height="25.69"/><path class="a" d="M165.45,9.5c9.38,0,14.2,5.83,14.2,12.88,0,7.38-4.67,12.8-14.92,12.8H154.11V9.5Zm-4.93,21h4.18c6.44,0,8.36-4.37,8.36-8.14,0-4.41-2.37-8.14-8.44-8.14h-4.1Z"/><path class="d" d="M14.64,38.74a4.3,4.3,0,0,0,2,2.95V38.74Z"/><path class="d" d="M17.76,38.74h2.81V43.3a13.18,13.18,0,0,1-2.81-1Z"/><path class="d" d="M21.64,38.74v4.78s1,.17,1.16.18a7.11,7.11,0,0,1,1.65.37V38.74Z"/><path class="d" d="M39.18,38.74a4.3,4.3,0,0,1-2,2.95V38.74Z"/><path class="d" d="M36.06,38.74H33.25V43.3a13.18,13.18,0,0,0,2.81-1Z"/><path class="d" d="M32.22,38.74v4.78s-1,.17-1.16.18a7.11,7.11,0,0,0-1.65.37V38.74Z"/><path class="d" d="M26.93,45.85a3.7,3.7,0,0,0-1.36-1.31v-5.8H28.3v5.8a3.77,3.77,0,0,0-1.37,1.31"/><polygon class="a" points="17.11 35.94 18.07 35.94 18.07 35.95 17.3 36.52 17.6 37.43 17.59 37.44 16.83 36.87 16.07 37.44 16.06 37.43 16.37 36.52 15.59 35.95 15.59 35.94 16.54 35.94 16.83 35.04 16.84 35.04 17.11 35.94"/><polygon class="a" points="20.5 35.94 21.45 35.94 21.45 35.95 20.68 36.52 20.98 37.43 20.98 37.44 20.21 36.87 19.45 37.44 19.45 37.43 19.75 36.52 18.97 35.95 18.97 35.94 19.92 35.94 20.21 35.04 20.22 35.04 20.5 35.94"/><polygon class="a" points="23.88 35.94 24.84 35.94 24.84 35.95 24.07 36.52 24.36 37.43 24.36 37.44 23.6 36.87 22.83 37.44 22.83 37.43 23.13 36.52 22.35 35.95 22.35 35.94 23.31 35.94 23.59 35.04 23.6 35.04 23.88 35.94"/><polygon class="a" points="27.26 35.94 28.22 35.94 28.22 35.95 27.45 36.52 27.75 37.43 27.74 37.44 26.98 36.87 26.22 37.44 26.21 37.43 26.51 36.52 25.73 35.95 25.73 35.94 26.69 35.94 26.98 35.04 26.98 35.04 27.26 35.94"/><polygon class="a" points="30.64 35.94 31.6 35.94 31.6 35.95 30.83 36.52 31.13 37.43 31.12 37.44 30.36 36.87 29.6 37.44 29.59 37.43 29.89 36.52 29.11 35.95 29.11 35.94 30.07 35.94 30.36 35.04 30.36 35.04 30.64 35.94"/><polygon class="a" points="34.02 35.94 34.98 35.94 34.98 35.95 34.21 36.52 34.51 37.43 34.5 37.44 33.74 36.87 32.98 37.44 32.97 37.43 33.27 36.52 32.5 35.95 32.5 35.94 33.45 35.94 33.74 35.04 33.74 35.04 34.02 35.94"/><polygon class="a" points="37.41 35.94 38.37 35.94 38.37 35.95 37.59 36.52 37.89 37.43 37.89 37.44 37.12 36.87 36.36 37.44 36.35 37.43 36.66 36.52 35.88 35.95 35.88 35.94 36.83 35.94 37.12 35.04 37.13 35.04 37.41 35.94"/><path class="a" d="M21.34,13.6v2.29c0,1.34-.91,1.8-2,1.8s-2-.55-2-1.8V13.6h1v2.32a.91.91,0,0,0,1,.93.93.93,0,0,0,1-1V13.6Z"/><path class="a" d="M24.92,14.64a3.09,3.09,0,0,0-1.28-.36c-.36,0-.59.13-.59.34,0,.6,2.06.43,2.06,1.84,0,.78-.66,1.23-1.56,1.23a2.79,2.79,0,0,1-1.45-.39v-.87a2.36,2.36,0,0,0,1.38.52c.38,0,.59-.14.59-.38,0-.66-2.05-.42-2.05-1.87,0-.7.6-1.16,1.53-1.16a3.32,3.32,0,0,1,1.37.32Z"/><path class="a" d="M29.94,17.63H28.86l-.33-.8H26.72l-.3.8H25.35l1.63-4h1.17Zm-2.36-3.07L27,16.13h1.24Z"/><rect class="a" x="30.44" y="13.6" width="1.01" height="4.04"/><path class="a" d="M34.16,13.6a2,2,0,0,1,2.23,2c0,1.16-.74,2-2.35,2H32.37v-4Zm-.78,3.29H34a1.19,1.19,0,0,0,1.31-1.27A1.18,1.18,0,0,0,34,14.34h-.65Z"/><rect class="e" x="-25.75" y="-25.47" width="521.7" height="104.88"/></svg>